<svg xmlns="http://www.w3.org/2000/svg" xmlns:xlink="http://www.w3.org/1999/xlink" viewBox="0 0 223 223"><defs><style>.cls-1{isolation:isolate;}.cls-11,.cls-2{fill:#a2d2dd;}.cls-3{opacity:0.4;fill:url(#linear-gradient);}.cls-17,.cls-24,.cls-3,.cls-7{mix-blend-mode:multiply;}.cls-4{fill:#fff;}.cls-17,.cls-4{opacity:0.5;}.cls-24,.cls-5{fill:#67b9c6;}.cls-6,.cls-7{fill:#684902;}.cls-7{opacity:0.6;}.cls-8{fill:#a36b07;}.cls-9{fill:#6d2603;}.cls-10{fill:#fffcf5;}.cls-11,.cls-13{opacity:0.3;}.cls-12,.cls-22{fill:#ea9a0c;}.cls-13{fill:#94cad3;}.cls-14{fill:#c9eef4;}.cls-15{fill:#a38136;}.cls-16,.cls-17{fill:#876e2e;}.cls-18{fill:#705822;}.cls-19{fill:#b78521;}.cls-20{fill:#d66c16;}.cls-21{fill:#bae2e8;}.cls-22{opacity:0.7;}.cls-23{fill:#b5540b;}.cls-25{fill:#cfd692;}.cls-26{fill:#68230c;}.cls-27{fill:#5b2418;}.cls-28{fill:#541707;}.cls-29{fill:#886627;}.cls-30{fill:#3a0503;}.cls-31{fill:#441108;}.cls-32{fill:#2d0803;}</style><linearGradient id="linear-gradient" x1="111.5" y1="65.47" x2="111.5" gradientUnits="userSpaceOnUse"><stop offset="0" stop-color="#fff"/><stop offset="0.07" stop-color="#f8fdfd"/><stop offset="0.18" stop-color="#e4f8f8"/><stop offset="0.31" stop-color="#c4f0f0"/><stop offset="0.45" stop-color="#97e4e5"/><stop offset="0.61" stop-color="#5ed5d7"/><stop offset="0.77" stop-color="#19c3c5"/><stop offset="0.83" stop-color="#00bcbf"/></linearGradient></defs><g class="cls-1"><g id="Layer_1" data-name="Layer 1"><rect class="cls-2" width="223" height="124.42"/><rect class="cls-3" width="223" height="65.47"/><path class="cls-4" d="M575.51,279.2c4.58-.34,9.39-.62,13.69-1.21,2.42-.34,8.28,2.61,9.61-.8,5.25-.38,10.36,1.2,15.56,1.91a176.45,176.45,0,0,0,19,1.47,109.45,109.45,0,0,1-16.18-3.08,52.18,52.18,0,0,1-13.6-5.1H571.1v11.09C574.18,283.68,576.82,282.92,575.51,279.2Z" transform="translate(-571.1 -272.39)"/><path class="cls-5" d="M794.1,495.39V398.21c-35.67-2.8-77-3.56-120-3.56-33.57,0-69.11,0-103,.89v99.85Z" transform="translate(-571.1 -272.39)"/><path class="cls-6" d="M624.87,403.5c6.93-.37,13.82-1.6,20.76-.88,9.51,1,18.79,2.58,28.37,2.6s18.7-2.42,27.52-6.18c8.37-3.57,23-13.07,17.58-23.89-3.19-6.41-4.71-13.43-7.8-19.9-.8-1.66-.65-2-2.43-2.21s-4.23.59-6,.71c-4.59.33-9.23.46-13.81.84-5.78.49-11.48,1.2-17.27,1.83-5.35.58-8.8-.94-13.8-2.23-5.57-1.43-12.06.5-17.64,1-6.29.58-12.9-.18-19.23-.18-7.8,0-15.69.66-23.21.44-2.3-.06-4.15,1.3-6.37,1.51-1.48.14-2.62-.46-4-.84-2.89-.8-4.78-1.55-7.09.44-3.49,3-5.82,7.35-8.18,11.27-.37.61-.76,1.21-1.13,1.81v39.43c9.43-1.31,18.86-2.75,28.33-3.7C607.92,404.54,616.35,404,624.87,403.5Z" transform="translate(-571.1 -272.39)"/><path class="cls-7" d="M659,355.4a11,11,0,0,1,1.8.32l0-.1Z" transform="translate(-571.1 -272.39)"/><path class="cls-7" d="M607.42,403.16c14.35-1.42,28.81-1,43-2.87,9.76-1.32,18.29-7.13,27-11.56,10.11-5.14,20.24-11.24,28.53-18.91,3-2.79,10.5-8.54,8.67-13.55-1.52-4.15-7.85-3.28-11.12-2.64-9.2,1.79-18.19,1.82-27.64,2.26-3.4.16-6.81.87-10.17.84a21,21,0,0,1-4.83-1,5.54,5.54,0,0,1-2.07,7c-1.38,1-2.87,1.14-3.67,2.68-.9,1.74-.81,3.6-2,5.43-.74,1.1-1.18,2.16-2.38,2.88s-2.45.42-3.63,1c-2.73,1.3-3.94,5.56-7,6.13-1-1.74.67-6.83-2.2-7.06-2.11-.16-4.33,4.54-5.8,5.93-3.16,3-10,6.59-14.54,7.07-2.56.27-5.87-.74-8.23-1.78a19.5,19.5,0,0,1-3.33-2c-1.68-1.16-1.07-1.2-2.81-.39-2.26,1-4.25,2.93-6.63,3.92-3.82,1.59-7,.85-10.62-.83-3.77-1.76-7.07-3.61-8.35-7.56-.81-2.52-.92-5.91-2.31-8.11-1.34,1.28-2.71,2.64-4,4.07v34.64a57.45,57.45,0,0,0,5.86-.53C587.09,406.65,597.2,404.17,607.42,403.16Z" transform="translate(-571.1 -272.39)"/><path class="cls-7" d="M628.49,401a128.08,128.08,0,0,1,18.29-.93c2.87,0,5.31.43,7.59-1.28a33.94,33.94,0,0,1,6-4.09c6.44-3,11-7.78,16.76-11.88,6.08-4.33,11.42-9.61,17.31-14.16,4.14-3.2,9.25-5.41,12.1-9.88-5.4,2.85-10.73,6.22-15.92,9.45-3.66,2.27-7.44,4.19-11.24,6.2-1.69.89-3.92,2.73-5.76,3.06.48-2.86,1.79-5.52,2-8.56.13-2.12,0-4.28,0-6.4-.38,3.92-3.81,8.27-6.2,11.22-1.23,1.52-5.58,7.67-6.63,4.88-.61-1.61.46-4.8.61-6.48.18-1.94.11-4.06.48-6,.23-1.14,2.67-5.13-.17-4.33-.19,2.81-1.59,4.71-2,7.47-.54,3.42-3.7,5.23-4.81,8.63-.41,1.27-3.39,10.32-6,8-1.31-1.19,1.59-8.35,1.48-10.17-1.45,1.17-2.63,4.54-3.9,6.22-1.86,2.47-3.45,5.16-5.85,7.21-3,2.55-8.59,6.38-12.73,6,.12-2.9,3-5.81,2.58-8.79-3.52,1.95-4.68,7.54-9,8.21-2.07.32-2.94,0-4.91,1a42.32,42.32,0,0,1-5.89,2c0-2.22,1.38-4.52,1.48-6.78-1.56,1.92-4.84,4.53-7.27,5.2-1.6.43-5.42,1.34-6.68.54-.85-.54-.76-2.19-1.54-2.67-1.16-.72-3.64.37-4.66.9-2.67,1.39-4.9,3-8.08,2.79-1.12-3.11.37-4-3.8-3.77-3.46.15-4,.08-5.91-2.61-1-1.41-2.95-3-3.61-4.63-.59-1.47-.31-4.12-.21-5.77.27-4.43,3.86-8.19,5.36-12.36,1.13-3.13,2.38-9.87,6.14-11.26,1.37-.5,2.8.51,4.2,0h.66c-1.32-.69-4-2.16-5.52-1.77s-3.09,3-4.16,4.2c-2.79,3.15-5.39,6.43-7.9,9.78v38.33q4.33-.48,8.69-1C596,404.73,612.36,403.31,628.49,401Z" transform="translate(-571.1 -272.39)"/><path class="cls-7" d="M585.37,356.51l.37.05-.15-.05Z" transform="translate(-571.1 -272.39)"/><path class="cls-7" d="M619,356.29c-7.8,0-16.47-1-23.88.88a11.32,11.32,0,0,1-4.65.65c-1.62-.21-3.08-1-4.71-1.26,2.19.79,4.7,3.21,6.11,5,1.71,2.23,2.4,6.67,4.58,8.17.83-2.17.22-4.77,1.14-7,.93,0,1.37,1,2.17,1,1.51.06,1-.71,2.16-1.29,1.61-.85,3.56,0,5.15-.81.61-.31.85-1.28,1.47-1.68a6.49,6.49,0,0,1,3.38-.65c2.42-.15,4.56.52,6.85.72,2.69.24,5.3-.75,7.92-1.28a47,47,0,0,1,9.55-.72,34.67,34.67,0,0,0,11.31-2.21c-4.92,0-9.67.89-14.57.89C628.27,356.73,623.71,356.29,619,356.29Z" transform="translate(-571.1 -272.39)"/><path class="cls-8" d="M620.53,412a28.07,28.07,0,0,0,12.16-2.28,140,140,0,0,0,17.68-9.44l.89-.22c-1.72-.69-4.28-.21-6.19-.45-3.18-.39-6.25-1.31-9.45-1.49-6.59-.39-13.12.61-19.69.61-10.53,0-21,2.52-31.45,2.87-4.59.16-9,.09-13.38-.17v11.43c6-.06,12-.22,18-.65C599.51,411.48,610.1,412,620.53,412Z" transform="translate(-571.1 -272.39)"/><path class="cls-9" d="M648.39,399.84c-4.82,0-9-2.24-13.77-2.43s-9.43.82-14.1,1.1c-6.48.4-13.52-.5-19.9.44-3.71.55-7.38,1.93-11.16,2h18.18c3.43,0,12.85-.8,15.35,1.77-2.42,2.41-8.57,1.27-11.81,1.71a91.45,91.45,0,0,1-11.84.94c-3,0-5,1.6-8,1.82-4,.29-8.22.36-11.94,1.23,8.87.69,18.05.05,27,.05,4.6,0,9.14-.22,13.73-.22,3.09,0,6.17.43,9.21-.05a55.45,55.45,0,0,0,12.22-3.27c1.57-.62,3-1.4,4.42-2.15.74-.38,1.47-.66,2.21-1s2.39-.82,2-1.06Z" transform="translate(-571.1 -272.39)"/><path class="cls-10" d="M646.62,393.05c-.91-2.51.16-4.66-.61-7.36-2.16-7.55-1.51-15.75-2.27-23.5-.18-1.85-.21-4.77-1.32-6.36s-2.36-.86-4.43-.65c-3.78.38-7.78-.12-11.5-.44-4-.36-10.87-1.6-14.59,0v.44c1.18-1.63,1.4,2.21,1.33,3.09a44.73,44.73,0,0,1-1.82,7.54c-1.3,4.76-2.6,9.2-2.6,14.19a66.79,66.79,0,0,1-.88,10.34c-.41,2.64-.68,6-1.76,8.37,2.94-.16,6,.47,9,.47h11.06c4,0,8-.25,12-.44,3.31-.16,9.13.85,11.92-.66A11,11,0,0,1,646.62,393.05Z" transform="translate(-571.1 -272.39)"/><path class="cls-11" d="M605.71,399l.66-.44,0,0A1.57,1.57,0,0,0,605.71,399Z" transform="translate(-571.1 -272.39)"/><path class="cls-11" d="M644.19,392.31a9.6,9.6,0,0,1-2.22-4,17.36,17.36,0,0,0-2-4.65c-1-1.81-.44-3.45-.44-5.58,0-2.67-.33-5.31-.45-8a33.08,33.08,0,0,0-1.59-9.46c-.65-1.9-1.4-3.46-1.31-5.49a18.58,18.58,0,0,0-2.36,0c.06,4.51,1.26,9.18,1.29,13.94s.47,9.52.23,14.29c-.15,2.95-.34,8.25-2.44,10.47-1.92-2.14-2.2-6.57-3-9.31-1.33-4.31-3.37-7.58-3.38-12.17,0-4.15.42-8.25,0-12.38-.08-.85-.13-7.18-2.46-4.87.88,3.16.72,12.89-2.59,14.34-.19-2.89.19-5.86,0-8.76-.16-2.1-.8-4.12-.92-6.21a15.49,15.49,0,0,0-2.36,0c.59,6.33,1.18,14-1.53,20.14-1.08,2.46-2.36,3.77-2.49,6.58-.1,2.26.37,4.62-1.1,6.2-.28.3-1.27.58-1.76,1.08-1.16,1.22-1.86,3.2-2.62,4.67-.6,1.18-3.38,4.21-2.28,5.27,2.09-.94,7.26.5,9.09.69a106.54,106.54,0,0,0,11,.44c3.76,0,7.57-.07,11.28-.44,2.68-.26,10.1-2,12.13-.25C647.55,397.25,645.88,394.55,644.19,392.31Z" transform="translate(-571.1 -272.39)"/><path class="cls-12" d="M649.58,380.28l-.31.77A2.54,2.54,0,0,0,649.58,380.28Z" transform="translate(-571.1 -272.39)"/><path class="cls-13" d="M625.21,393.82c-.89-1.65.48-5.17-2-5.73-.12-4.87,1.06-10.08,1.06-15.15-.78,4.49-3.26,9-3.93,13.42-.33,2.17,1,4.07,0,6.2-.83,1.63-4.06,4.1-2.88,6.18l-.66.88c.57-.83,4.8-1,6.2-.89,1.88.1,3.72.72,5.65.69a14,14,0,0,1-1.52-2.67C626.58,395.63,625.73,394.79,625.21,393.82Z" transform="translate(-571.1 -272.39)"/><path class="cls-10" d="M595.55,415.05a60,60,0,0,1,8.42-.83,17.7,17.7,0,0,1-1.11-3.28c2.54-.7,7.41,0,9-2.46.78-1.18,0-1.81,1.3-2.9s3.76-1.14,5.27-1.59c2.41-.71,4.6-1.83,7-2.65,2-.71,4.33-1.13,5.91-2.56-5-.33-10.18,0-15.24,0-3.08,0-7.86.51-10.29-.62a6.06,6.06,0,0,0-1.45,1.5c-.85,1.31.29,1.11-1.36,2-2.15,1.15-4.25,1.33-6.2,3-3.58,3.14-8.25,3.9-12.31,6.64a3.45,3.45,0,0,1,1.5,1.12,28,28,0,0,0-10.63,2.25,18.16,18.16,0,0,1-4.27,1.13v.56c2.48-.28,5-.53,7.47-.59C584.28,415.62,589.87,415.71,595.55,415.05Z" transform="translate(-571.1 -272.39)"/><path class="cls-10" d="M605.82,398.12l.44-.27-.55.23Z" transform="translate(-571.1 -272.39)"/><path class="cls-10" d="M606.81,397.63a3.94,3.94,0,0,0-.55.22Z" transform="translate(-571.1 -272.39)"/><path class="cls-10" d="M610.13,353.63c-1.59-.08-3.25,0-4.83,0,.2,1.13,1.06,2.11,1.29,3.29a21.72,21.72,0,0,1,0,4.7c-.19,3.81-.46,7.56-.46,11.45,0,8.13.44,16.34.45,24.57,1.65-5.75.88-14.75.88-21.26,0-3.64-.07-7.28.22-10.89.19-2.5,1.59-4.37,2.16-6.75a26,26,0,0,0,.31-4.67,5.71,5.71,0,0,1,2,.86h1.11C614,354.15,611.16,353.68,610.13,353.63Z" transform="translate(-571.1 -272.39)"/><path class="cls-14" d="M612.45,397.47h1.17c-.39,0-.76,0-1.14,0Z" transform="translate(-571.1 -272.39)"/><path class="cls-14" d="M583.73,414.25c1.93-.54,1.88-.91,3.18-2.22,1.9-1.92,5.21-2.72,7.63-3.78s5.47-2.48,8.27-2.63c-.69,1.51-3.26,2.14-4.28,3.59,2.29-.16,5.14-1.9,7.1-3.08,1.49-.91,2.76-2.78,4.35-3.49,1.41-.63,2.79.05,4.34-.56,1.81-.72,2.88-2.07,4.86-2.42,3.24-.58,6.82-.42,10-.74,2.35-.23,7.21.71,8.94-.92-4.95,0-10.28-.2-15.25-.66-2.67-.25-8-1.07-10.41.12.38,0,.75,0,1.14,0h-1.14c-1.13,0-2.25-.21-3.34-.32a9.85,9.85,0,0,0-2-.17c-1.23.19-.72.58-1.45,1-1.43.83-2,.89-3,2.15-.49.62-.15.66-1,1.17a14.41,14.41,0,0,1-2.33.65c-1.63.53-2.63,1.54-4.12,2.21-1.8.8-3.8,1.07-5.62,1.94s-3.58,1.82-5.33,2.82a10.47,10.47,0,0,0-2.63,1.46c-.51.6-.15,1.35-.53,1.86a.44.44,0,0,1,0,.3c-2.61.73-5.8.77-8.47,1a9.28,9.28,0,0,0-1.52.28v2.93c1.61-.2,3.19-.43,4.74-.68A66.82,66.82,0,0,0,583.73,414.25Z" transform="translate(-571.1 -272.39)"/><path class="cls-10" d="M638.65,405.72a11.49,11.49,0,0,1-1.36-2.74c-.75-1.63-1.52-3.18-2.15-4.82-1.63-.1-4.86-.17-5.44,1.8l1.16-.5a17.7,17.7,0,0,0-3.19,2.19c-.89.85-1.15,2-1.94,2.78s-2.33,1.06-3.33,1.67a7.16,7.16,0,0,0-1.78,1.82c-2.3,2.64-6.13,4.53-9,6.42,2.26,0,4.54-.65,6.78-.79,1.85-.1,4.19,0,5.81-1,2-1.17,2.75-2.41,5.3-2.65a69.2,69.2,0,0,0,12.1-2C640.84,407.14,639.42,406.65,638.65,405.72Z" transform="translate(-571.1 -272.39)"/><path class="cls-15" d="M719.76,348.05c-4.11.81-7.17,3.5-9.28,7.08s-3.86,6.84-7.79,8.36c-3.58,1.38-7.52,1.2-11,3.2s-5.72,6.07-8.89,8.58c-3.6,2.85-7.64,4.81-11.29,7.46s-7.28,5.44-11.26,7.77c-3.52,2.07-7.44,3.82-10.24,6.81a26.61,26.61,0,0,1-7.9,5.64c-3,1.6-5.36,3.54-8.61,4.63a31,31,0,0,0-7,2.83c-1.58,1-2.91,2.24-4.55,3.15a41,41,0,0,1-5.13,2.67c-1.86.68-3.85.29-5.68,1.08,1.1,1.28,4.2.61,5.73.14,4-1.24,7.91-3.76,11.9-5.32,5-2,9.94-5.22,14.63-8,8.19-4.79,16.35-9.29,24.76-13.66s16-10.29,23.66-15.86c5.58-4,11.63-7.33,17-11.6a37.65,37.65,0,0,0,5.81-6.1c1.76-2.17,4.43-3,6.58-4.74,2.74-2.24,5.52-5.18,8.85-6.36l.66-1.11c-2.3.09-3.59,2.71-5.7,3.05C723.52,348.05,721.5,347.72,719.76,348.05Z" transform="translate(-571.1 -272.39)"/><path class="cls-16" d="M749.81,343.75a122.06,122.06,0,0,0-20.54,4.31h1.33c-3.17.84-7.61-.05-10.62,1.32a27.7,27.7,0,0,0-7,5.28c-2.24,2.49-2.86,5.24-5.63,7.33-3.16,2.38-6,4.23-9.81,4.9-5.18.92-8.07,3.39-11.67,7-3.15,3.13-6.83,5.24-10.3,8-9.36,7.47-19.47,14.07-29.52,20.58-9,5.86-19.9,10.75-29.9,14.45,7.84-1.58,17.52.15,25.59.15,12.12,0,24.25-.33,36.4-.33,15.6,0,30.94-1,46.44-1.67,15-.61,30.12.4,45.12-.31,8.09-.38,16.25-.59,24.43-.56v-70C779.89,341.55,763.52,342.22,749.81,343.75Z" transform="translate(-571.1 -272.39)"/><path class="cls-17" d="M729.58,348.05a4.05,4.05,0,0,0,.35-.21l-.44.22Z" transform="translate(-571.1 -272.39)"/><path class="cls-17" d="M729.58,348.05c-2.32,1.26-5.84.37-8.44.66-3,.33-4.87,1.83-6.85,3.93-2.23,2.39-3.61,5.32-5.8,7.76-2,2.27-4.52,3.43-7.26,4.64-4.2,1.86-8.61,3.39-12.2,6.23-4,3.15-6.87,7.18-11.06,10.2-4.56,3.27-9.52,5.94-14.14,9.2s-8.56,7.35-13.49,10.22c-5.41,3.16-11,6.05-16.59,8.86-3.26,1.63-7.45,3.41-10.37,5.26,3.94,0,7.93-1.29,12-1.28h12.71c11.39,0,22.73-.41,34.06-1.33,7.16-.57.4-4-1.53-7.68-1.64-3.16.61-5.88,2.24-8.52,1.76-2.83,3.16-5.87,5.13-8.57,1.58-2.14,2.87-4.44,4.41-6.61,2.3-3.23,2.41-1.54,5.45-2.22,2.08-.46,1.95-1.89,2.48-3.76.6-2.15.7-2.23,2.65-3.37,3.85-2.26,6.58-7.24,10.93-8.36,5-1.29,11.32,4.57,16.49,1.6-2.54-.5-6.69-1.59-7.26-4.69-.46-2.58,2.36-3.9,4.22-5.1,1.47-.95,4.59-2.14,4.81-4.19C732.31,349.5,731,347.84,729.58,348.05Z" transform="translate(-571.1 -272.39)"/><path class="cls-18" d="M787,380c-3.19.52-6.35,1.09-9.52,1.67-5.11.92-10.21.63-15.31,1.2s-10.1,2.48-15.45,2.83c-5.78.39-11.63.66-17.43.66-4,0-8-.06-12-.44-2.07-.2-7.47-1.68-8.12.66-.77,2.77,4.17,8,5.47,10.07,2.76,4.32,6.86,8.27,10.72,11.67,5.37,4.71,12.86,6.07,19.19,8.94,1.84.84,2.39,1.47,4.24,1.6,4.61.32,9.24-.25,13.83.23,9,.93,18.07,1.1,27,2,1.42.14,2.94.39,4.46.51V379.21A68,68,0,0,0,787,380Z" transform="translate(-571.1 -272.39)"/><path class="cls-17" d="M793.17,387.73c-1.81,5.87,1.29,15.39-4.15,20-8.67,7.33-10-15.77-12-19.23-2.64,2.84-1.12,10.72-1.11,14.4,0,3.41-1.24,10.87-5.75,6-1.66-1.8-1.8-4.19-3.09-6.18-1.44-2.24-3.88-2.5-6.19-3.38-4.71-1.78-8.32-3.57-9.33-8.75-4.32.09.2,7.93,1.14,9.2,1.42,1.9,6.72,7.85,3.27,10.06-4.84,3.11-10.15-6.46-11.45-9.52a34.2,34.2,0,0,1-2.69-10.59c-3.4,3.3-.86,12.06.42,15.91.76,2.26.89,4.24-1.93,2.44-2.64-1.69-5.73-5.73-7.58-8.26-1.39-1.91-1.92-5.08-3.69-6.62-2.13-1.86-5.31-.33-8-.82-3-.56-9.46-3-11.07-6,2,5.83,8.1,12,12.61,16.07a68.24,68.24,0,0,0,19,11.51c2.73,1.16,4.81,2.84,7.79,3.27a51.17,51.17,0,0,0,7.24.27c7.63,0,15.2.22,22.85.22a52.07,52.07,0,0,0,14.61-2.21V388.57Q793.7,388.18,793.17,387.73Z" transform="translate(-571.1 -272.39)"/><path class="cls-19" d="M774.15,374.59c-4-.16-11,1.4-14.59-.22v-.22a39.52,39.52,0,0,0-11,1.33c-3.93,1-7.46,1-11.5,1.1-6.21.2-12.94-.47-18.85,1.61-3.38,1.18-6.54,3-9.72,4.42-1.33.59-3.55,1.05-3.29,2.82.15,1,3,3.41,3.91,3.5.76-2.66,3.92-2.43,6-1.68,1.61.57,2.37,1.17,4.2,1.27s3.68-.15,5.53-.22c6.7-.26,13.53,1.51,20.28.5a13,13,0,0,1,3.37-.5c1.53.16,2.79,1.48,4.37,1.56,1.4.07,2.33-.67,3.7-.95a18.14,18.14,0,0,1,7.19.11c1.56.37,2.77,1.22,4.35,1.62a27.5,27.5,0,0,0,9.91,0,99.24,99.24,0,0,1,16.07-.81V376.24C787.4,375.38,780.65,374.85,774.15,374.59Z" transform="translate(-571.1 -272.39)"/><path class="cls-20" d="M757.35,373.71l1.11-.44c-2.62,0-5.29.66-7.91.66-2.87,0-4.54-1.37-7.51-.17-2.75,1.1-4.91,2.38-8,1.89-2.38-.38-4.58-1.32-7.07-1.51-3.31-.26-5,1.56-7.73,2.22-1.91.46-3.83,0-5.75.62s-3.73,1.25-4.82,3c-1.54,2.44-.22,3.78,2.29,2.38,2.72-1.51,5.24-3.09,8.48-3.31,2.65-.19,7.73-.78,9.58.44.35.23.22.93.65,1.28a4.6,4.6,0,0,0,1.89.48,3.46,3.46,0,0,0,3.42-.65c1.39-.88,1.44-1.64,3.34-1.77,1.28-.1,2.45.26,3.73.21,2-.07,4-.68,6.08-.88,1.39-.15,5.39-1,6.7-.22s.17,1.06.88,2c1.22,1.62,3.53,1.73,5.5,1.55,2.73-.25,5.54-2.81,8.22-2.45,1.63.22,3.05,1.45,4.92,1.57a9.11,9.11,0,0,0,5-1.11c4-1.77,9.13-2,13.76-1.79v-1.95C781.88,374.14,769.68,372.85,757.35,373.71Z" transform="translate(-571.1 -272.39)"/><path class="cls-10" d="M738.07,344.25h.65l-1,.16a2.68,2.68,0,0,1,.34-.16c-3.91.05-9.15.93-11.24,4.31-2.73,4.4-6.15,8-9.59,11.86-2.65,3-5.74,5.55-8.2,8.54-1.11,1.34-1.31,3-2.28,4.31-1.19,1.61-3.75,1.06-4.9,3-.44.74-.16,1.69-.78,2.33s-2,.42-2.75,1.44c-1.22,1.64-.67,2.94-2.55,4.18-2.36,1.55-5.63,2.23-6.85,5-.33.75-.24,1.57-.78,2.3s-1.91,1.34-2.7,2a76.11,76.11,0,0,0-5.89,5.61c-2.16,2.14-5.06,3.49-7.67,5a212.59,212.59,0,0,1-21.11,10.77c-2.26,1-4.5,2.56-6.87,3-2.56.45-5.12.86-7.67,1.53-2.12.55-5.18.84-7,2.07,2.54.79,5.3.54,7.92.54,5.05,0,10.1-.12,15.14.13,7.81.38,15.57.2,23.39.2h17.23c2.85,0,2.9-.59,4.62-2.87,2.7-3.56,5.45-7.06,8.31-10.5,2.35-2.81,4.08-6,6.28-8.89.51-.67,2.06-1.95,2-2.74s-2.28-3.23-2.82-4.18c-1.07-1.88-2-3.19-2-5.39-.87,2-3-1.43-3.2-2.41-.47-2,1-2.9,2.84-3-.1-1.79.75-2.57,2.21-3.58,2-1.39,4.14-.63,6.12-1.58,1.44-.68,2-3.48,2.92-4.93,1.91-3,3.94-6,5.89-9.08a135.13,135.13,0,0,1,10.41-13.6,16.2,16.2,0,0,1,4.14-3.73c1.22-.7,2.76-.88,3.81-1.75C742.88,344,739.74,343.58,738.07,344.25Z" transform="translate(-571.1 -272.39)"/><path class="cls-10" d="M737.73,344.41l1-.16h-.65A2.68,2.68,0,0,0,737.73,344.41Z" transform="translate(-571.1 -272.39)"/><path class="cls-17" d="M790.3,345.07l-.33-1.32c-4.74,3.58-12.08,5.38-18,6.56-3.61.72-20.27-.39-21.45,2.67,8.25.47,16.51.06,24.81.43-.86,3.72-11.41,4.09-14.55,4.53s-6.49,1-9.69,1.32c-3.74.33-8.54-.53-11.9,1.05,3.72,2.48,10.33,1.79,14.61,2,4.5.24,9.08-.22,13.56.05-.93,3.15-12.14,3.42-14.84,3.68a97,97,0,0,0-14.71,2.15c-4.87,1.24-10.52,3-14.49,6,5.77-1.18,11,2.48,16.24.72,2.39-.79,4.28-2.78,6.95-2.65s4.17,1.66,7,1.66c3.08,0,6-1.61,9-1.33,2.7.26,5,1.33,8,1.33A125.87,125.87,0,0,1,788,375.25c2,.27,4.07.61,6.11.95V343.83A22,22,0,0,0,790.3,345.07Z" transform="translate(-571.1 -272.39)"/><path class="cls-17" d="M777.75,359.72c.34,2.92,4,1.6,5.65,2.91-4,4.22-13.13,5.67-18.64,5.66-5.84,0-10.42,2.66-16.15,2.65,8.82-.28,17.82,1.45,26.62,1,4-.21,8.59-2.19,12.62-1.34,2.16.45,4.19.94,6.25,1.35V357C788.66,358.11,783.05,358.47,777.75,359.72Z" transform="translate(-571.1 -272.39)"/><path class="cls-10" d="M706.39,416.38a2.18,2.18,0,0,0,0-.25l-.34-.08Z" transform="translate(-571.1 -272.39)"/><path class="cls-10" d="M706.39,416.38l-.33-.33.34.08c.09-2.11-2.25-2.15-3.69-1.2,1.46-6.33-9.67-6.41-9.31-.92-3.3-.63-3,3.46-5.26,3.39-1.67,0-1.15-2.6-2.29-3.34-3.06-2-6.92,1.57-9.06,3-1.41.93-1.59,2.73-3.93,1.37-1.91-1.12-1.17-2.69-3.54-3.68-4.29-1.8-7.5,1.52-11.34,1.74s-1-.71-3.07-2.41a8.51,8.51,0,0,0-6.24-1.65c-2.22.52-6.2,4.85-8.28,4.66-1.59-.15-1.46-2.13-2.64-2.94s-3.22-.71-4.59-.72c-3.28,0-5.16,2-8.4,2.06-2.27.08-3.54-.22-5.89.51a24.44,24.44,0,0,1-5.19,1.42c-4.79.53-10.52,1.22-15,3,12.11,1.71,24.5.12,36.68.7C632.7,424.59,640.2,424,642,424c4.32,0,8.53-.17,12.85-.33,8.85-.32,17.68-.66,26.61-.66,3.68,0,7.38,0,11,.33,1.86.17,4.13.79,6.06.34,1.38-.32,2.43-1.33,3.88-1.68,3.3-.78,7.4.13,10.88-.33,2.23-.3,15.66.63,16.92-2.05,0-.06.34-.49.36-.51-7.37-2.78-16.47-1.19-24.16-3A2.18,2.18,0,0,1,706.39,416.38Z" transform="translate(-571.1 -272.39)"/><path class="cls-11" d="M742.1,344.74l0-.1-.07.06Z" transform="translate(-571.1 -272.39)"/><path class="cls-11" d="M742.13,344.64c.19-.2.29-.38.19-.56Z" transform="translate(-571.1 -272.39)"/><path class="cls-11" d="M734.14,347c-1.88,2-4.25,2.58-5.74,4.81-2.1,3.13-3.39,6.14-6,9-2.12,2.31-4.66,4.43-6.37,7.08-1.41,2.18.18,4.62-2.36,6.26s-3.29.49-4.48,3.52c-.44,1.12.05,1-1.11,2.15-.83.82-1.94,1.14-2.49,2.22-.41.82,0,1.56-.21,2.26-.42,1.38-1,1.38-2.16,2.45a5.11,5.11,0,0,0-1.76,2.61c-2.62-4.18-2.52,8.11-2.88,8.88s-1.09.7-1.77,1.3a25.82,25.82,0,0,0-3.55,4.17c-2.4,3.26-5,6.45-7.47,9.55,0-2.2,2.07-3.79,2.14-5.93-3.22,0-5.54,5.85-9,5.9-.27-1.41,1.16-2.74,1.26-4.13-3.78-.58-8.15,4.36-11.47,5.67-2.64,1-6-.35-8.56.69-1.81.74-2.25,2.75-3.43,3.95s-1.55,1.17-3.43,1c-2.49-.24-6.07-.15-8.22,1.33,5.19,1.67,11.45-.45,16.8-.5,5.08-.05,10-.4,15-.83,8.34-.73,17-1.93,25.39-1.86.3-1.82-1.11-2.8-1.07-4.39,0-1.37,1.71-2.53,2.64-3.54,2.75-3,4.47-6.16,6.65-9.51,1.53-2.37,4.16-4.27,2.71-6.9-1.2-2.2-3.32-4.7-3.41-7.44-2.55,1.85-4.69-4.68-.44-4.48-.29-1.86,1.93-2.71,3.36-3.28,1.94-.79,3-.38,4.36-2s2.06-3.8,3.37-5.51,2.89-3.69,4.21-5.53c2.68-3.77,4.7-8,7.51-11.71a57.26,57.26,0,0,1,8.68-8.58c.42-.37.92-.69,1.23-1C740.35,342.19,735.52,345.52,734.14,347Z" transform="translate(-571.1 -272.39)"/><path class="cls-10" d="M776.38,348.27c-.16-1.61,0-3.59-.62-5.08-1.34-3.42-6.19-2.74-9.34-2.87-3.92-.16-6.44.67-9.95,1.77-.62,1.57-.91,3.57-1.38,5.28-.85,3-2.16,6.57-2.39,9.69a2.76,2.76,0,0,1,1.3-1.85c.29,6.12-1.88,12.41-2.81,18.24,2.07.12,4.33-.23,6.35.18.64-7.86-.25-15.7,4.68-22.63,1.13,3.57.51,8.53,0,12.27-.45,3.12-.21,6.45-.63,9.52,3.53-.18,6.73,2,10.18,1.8-6.93-3-3.32-28,.64-26.33,1.72.74,1.24,5.88,1.3,7.27.11,2.4.53,4.71.85,7.07.52,3.82-.11,7.89.08,11.74,1.39-.24,2.91-.13,4.36-.23-1.67-6-2-12.13-2-18.43A72.58,72.58,0,0,0,776.38,348.27Z" transform="translate(-571.1 -272.39)"/><path class="cls-11" d="M774.33,343.47c-1.93-4.35-12.68-5.31-15.65-1.82h.88c-1.52,0-1.46,1.92-1.38,3.09.11,1.66.4,2.15-.11,3.93-1,3.34-2,6.78-2.77,10.17-.65,2.82-1.11,5.76-1.66,8.51-.61,3.11,1,3.43,3.45,4.95.63-1.59.26-3.87.26-5.61a25.24,25.24,0,0,1,.94-6.48c.38-1.52,1.85-9.89,3.47-10.34,3.47-1-.13,19.62,0,21.82,1.57.08,3.22.08,4.8,0,.19-2.09-.76-4.48-.86-6.65a51.31,51.31,0,0,1,.66-10.08c.3-2,.71-4.11,1.16-6,.53-2.21,1.11-2.66,3.46-2.9.06-.21,0-.39.06-.6,2.69-.7,3.39,7.56,3.51,9.69.29,5.18-.37,11.39.88,16,0-5.87-.44-11.6-.44-17.46C775,350.82,775.45,346,774.33,343.47Z" transform="translate(-571.1 -272.39)"/><path class="cls-13" d="M710.26,371.72a24,24,0,0,1-5.75,6.48c-.85.61-2.33,1.05-2.68,2.14-.21.66.66,1.5.48,2.21-.53,2.08-3.91,3.16-5.07,4.88-.85,1.27-.5,2.69-1.35,4-1.08,1.62-3.39,2.67-4.65,4.18s-2.06,3-3.32,4.44a49.49,49.49,0,0,1-9.91,8.82c.15-.31.2-.9.38-1.26-3.22-.05-7.53,5.16-10,7-2.19,1.68-5.82,5.67-8.49,6.2,3.51.07,7-.71,10.5-.88a83.21,83.21,0,0,0,11.08-.93c-1-.91-3.33-1.48-4.82-2,0-2.62,4.4-5.22,6.34-6.56a8,8,0,0,1,.08.84c2.78-1.31,4.26-6.6,7.45-6.8,0,.32.09.72.07,1,1.78.13,2.23-6,3.28-7.53,1.48-2.21,3.33-5.31,5.5-6.79-.11.6.16,1.35.06,1.95,2.55-.22,1.11-4.27,1.51-5.72.53-1.94,2.92-3.17,3.93-5.08a21.12,21.12,0,0,1,3.39-5.09c1.13-1.26,3.05-4,2.2-5.53Z" transform="translate(-571.1 -272.39)"/><path class="cls-17" d="M714,397.15a17.43,17.43,0,0,1,1.75,2,51,51,0,0,1-3.08-5.75Z" transform="translate(-571.1 -272.39)"/><path class="cls-17" d="M729.89,411.8a25.74,25.74,0,0,1-8.41-4.92c-2.37-2.26-3.79-5.22-5.71-7.74.31.57.61,1.14.88,1.72-2.62-.48-2,1.39-1.8,2.92.25,2-.15,1.91-.89,3.48-.5,1-.38,2.46-1.1,3.38-1,1.27-3,.69-3.91,1.77,2.36.89,5-.53,7.48-.19a7.12,7.12,0,0,0-1.06,1.48,2.16,2.16,0,0,1,2,.47c-.5.27-1,1-1.34,1.3a112.58,112.58,0,0,0,11.92.25c2.15,0,9.62.75,10.87-1.11C737.23,412.68,732.22,412.69,729.89,411.8Z" transform="translate(-571.1 -272.39)"/><path class="cls-17" d="M681.72,381.84c-1.82,1.29-1.29,1.33-1.93,3.15-1,2.77-3.81,3.38-5.35,5.92s-2.32,2.81-4.89,4.19c-1.8,1-2.95,2.56-4.44,3.82a84.26,84.26,0,0,1-14.38,9.33c-3.46,1.84-9.23,4-11.4,7.52-.38.62-.62.78-.68,1.47,2.77.42,3.86-1.24,5.92-2.63a9.69,9.69,0,0,1,6.87-1.78c2.55.36,2.58.54,4.81-.86,3.67-2.31,7.79-3.81,11.33-6.42.93-.68,2.15-1.34,2.61-2.43s-.16-2.05.48-3.1c1.35-2.24,5.08-3.35,6.91-5.47a20.29,20.29,0,0,0,3.76-6.42c.59-1.67.49-3.49,1.5-5s3.21-3,4-4.6l-.22-.66C685.35,379.71,683.47,380.6,681.72,381.84Z" transform="translate(-571.1 -272.39)"/><path class="cls-10" d="M786.53,409.53c-.52-6.64-.89-13.53-2-20.07-.82-4.69-2-10.3-4-14.6a17.22,17.22,0,0,0-2.59-4.25h.22c-5.3,0-10.34-.67-15.54-.66-3,0-11-1.39-13.38.94-1.33,1.31-.46,3.56-.87,5.25-.68,2.79-2.47,5.28-3.22,8.12-1.07,4-2.39,7.86-3.7,11.83-1.5,4.56-2.52,9.34-4.14,13.83-1.34,3.68-3.28,7.14-4.48,10.9-.51,1.6-.91,3.87-2.13,5.08,5.6-.06,11,1.57,16.69,1.28a38.13,38.13,0,0,1,2-10.52c1.78-5.84,2.71-11.88,4.4-17.75,1.89-6.54,4.44-13.35,5.86-19.88.94,2.86-.39,7.84-1.2,10.81a81.5,81.5,0,0,0-2.18,13.5,131.49,131.49,0,0,0-.87,13.49c0,2.61,0,6.49-1,8.86a10.21,10.21,0,0,0,4.3-.72c.22-3.69.09-7.13,1-10.79,1.16-4.78,1-9.57,1.66-14.39.54-3.92,1.39-7.79,2-11.71.38-2.49-.42-7.45,1.15-9.32,2.32,2.35,2.06,9.77,2.23,12.86.32,5.72.48,11.33,1.1,17a121.31,121.31,0,0,0,1.93,12.17c.38,1.82,1.15,3.67.51,5.47,2.79-.13,5.74.26,8.6.26,1.63,0,8.37.72,9.47-.48s-.74-5.58-.84-7.05C787.19,415.84,786.78,412.7,786.53,409.53Z" transform="translate(-571.1 -272.39)"/><path class="cls-10" d="M764,412.45c.14-2.9-.41-5.74-.21-8.67.22-3.3.91-6.45,1.1-9.8.26-4.5.6-9.39,0-13.86-.24-1.83-.49-3.3-2.48-3.93-1.7-.54-3.9.16-3.93,2.16l.22-.44c-.06,2,.65,4.24,0,6.19-1,3.06-3.5,4.33-2.85,8,.57,3.23,1.15,4.62-.75,7.69a9.23,9.23,0,0,0-1.72,6.29c.59,7,.25,14.61-3.07,21,3.59,2.3,11.56.45,15.43-.05-.72-1.95-1.85-4-2.14-6.21C763.23,418,763.86,415.2,764,412.45Z" transform="translate(-571.1 -272.39)"/><path class="cls-21" d="M766,370.17l.66-.22h-1.1A.61.61,0,0,1,766,370.17Z" transform="translate(-571.1 -272.39)"/><path class="cls-21" d="M765,369.93h.53A1.84,1.84,0,0,0,765,369.93Z" transform="translate(-571.1 -272.39)"/><path class="cls-21" d="M753.81,370c-1.93.17-3.92.47-4.42,2.43-.19.77.36,1.78.22,2.65-.2,1.34-.78,1.69-1.54,2.71-1.44,1.91-1.16,3.5-2,5.48-1,2.35-4.34,3.15-5.66,5.35s-1.09,5.22-1.55,7.53c-.59,3-1.42,5.9-2.31,8.83-2,6.78-7.34,14-7.88,20.93a91.62,91.62,0,0,0,9.66-.22c.19-3.38.41-6.75,2-9.88.63-1.23,1.7-2,2.22-3.34.89-2.34.76-5,1.1-7.49a130.56,130.56,0,0,1,3-13.05c.32-1.25,2.18-8.45,3.82-5.54,2.29-2.7.79-7.51,2.88-10.38,2.35-3.22,2.09.39,3.08,2,1.62-1.67,1.75-4.44,3.76-6a13,13,0,0,1,4.79-2A107.26,107.26,0,0,0,753.81,370Z" transform="translate(-571.1 -272.39)"/><path class="cls-21" d="M765.27,370.85l-.38,0C765.1,371.28,765.15,370.94,765.27,370.85Z" transform="translate(-571.1 -272.39)"/><path class="cls-21" d="M765.31,370.85v0l0,0Z" transform="translate(-571.1 -272.39)"/><path class="cls-21" d="M780,418.39c-.11,1.79.55,4.86-1.15,6-1.19-1.57-1.5-4.32-2.16-6.23-1.39-4-1.45-8.34-1.6-12.6-.29-8-1-16.69.93-24.49,1.25,3.45,2.39,7,3.44,10.5.54-7.16-3.59-13.4-4-20.25-2.83-1-7-.69-10.14-.46l-.44,1.31c4-.74,1.28,9.33,1.38,11.44.21,4.67-.87,9.33-.67,14.16.42,9.79,0,19.72.66,29.43,4.54-1.28,11.18-.27,16-.18C779.74,426.35,782.23,420.17,780,418.39Z" transform="translate(-571.1 -272.39)"/><path class="cls-10" d="M793,426.08c.3-2.38-4.68-3.62-5.55-2-1.27-.31-3.91-1.21-5.06-.44-.48-1.49-3.58-2.73-4-.65.62-2.41-2.34-2.42-3.72-1.34,1.78-3.91-6.29-1.28-5.81,1.15-1.08,0-2,1.24-2.84,1.16-1.31-.12-1.3-2-2.88-1.43a1.76,1.76,0,0,0-2.45-.21c1.33-2.53-2.79-2.51-4.13-1.72-2-1.83-3.24.59-3.19,2.44-.6-.68-1.29-1.59-2.35-1.56-.47-1.19-3.2-2.11-3.62-.44-1.31-.32-4.58.66-5.93,1.57l.5.93c1,.21,1.63.88,1.05,1.95l-1.05-1.95a3.14,3.14,0,0,0-.7-.07,5.36,5.36,0,0,0,.17-2.15c-1.52,0-3.95-5.31-5.33-.5-1-.44-1.79.3-2.38,1.16-1.1-1.38-5.3-3.32-6.46-1.22a2,2,0,0,0-3.09,1.12c-1.51-3.72-9-.69-8,2.08-2.11-.14-4.86,1.05-7,1.52a34.58,34.58,0,0,1-4.69,1.13c-1.71.11-4.11-1-5.47.38,8.78.61,17.72-.47,26.51.09-.21.2-.56,1-.85,1.29,3.2,1.38,8-.6,11.54-.23,2.3.23,4.17.89,6.62.89,4,0,8,.22,12.06.22,2.27,0,4.09-1,6.29-.89,5.91.2,11.6.43,17.65.22,5.05-.17,10.2.13,15.29,0v-2.4Z" transform="translate(-571.1 -272.39)"/><path class="cls-10" d="M741.93,423.5l1.05,1.95C743.56,424.38,742.9,423.71,741.93,423.5Z" transform="translate(-571.1 -272.39)"/><path class="cls-17" d="M733.9,388.52c-.78-.25-1.11-1-1.93-1.15-1.08-.18-1.23.37-2.25.54-3.65.62-7.8.36-11.71.88,4.42,1.32,9.63,1.28,14.08,2.66a26.82,26.82,0,0,1,2.7,1.29c.46.2,2.83,1.93,3.1,1.93,1.42,0,1.44-4.38,2.22-5.7l-.45-.45A12.46,12.46,0,0,1,733.9,388.52Z" transform="translate(-571.1 -272.39)"/><path class="cls-17" d="M784.33,390.51l.38-.07c-.05-.13-.1-.25-.16-.37Z" transform="translate(-571.1 -272.39)"/><path class="cls-17" d="M784.71,390.44c1.16,2.72.11,5.95,1,8.68.79-.6.6-1.39,1.13-2.2.83-1.26.73-1,1.93-1.54,1-.5,1.33-.2,2.27-1.1s.65-1.67,1.93-2.18a6.93,6.93,0,0,1,1.15-.31v-2A43.83,43.83,0,0,0,784.71,390.44Z" transform="translate(-571.1 -272.39)"/><path class="cls-10" d="M577,420a94,94,0,0,1,12.8-.63c4.64,0,9.62.19,14.14-.7a88.58,88.58,0,0,1,8.87-1.3c1.42-.14,8.14-.7,4.47-2.64-.83-.45-3-1-3.63-.36,1.4-1.27-3.82-2.27-4.82-.81H609c-.39.05-1.85.46-2.62.5-1.32.09-2.31-.66-3.52-.67-.45,0-1.34.64-1.65.52-.88-.34-.35-1.38-.95-1.88s-1.1-.18-1.67-.44c-1-.48-1.51-1.57-3-.86s-1.26,3.06-3.07,2.38c-.47-.17-.09-.64-.4-.88s-.7-.17-.88-.32c-.75-.58-.85-1.06-2-.68-1.33.46-1.79,1.93-3.31,2.17-.49.07-1.18-.07-1.82,0s-1.33.73-1.87.83a24.92,24.92,0,0,1-4.1-.29c-.53,0-1.11-.08-1.64-.06.52-1.62-2.19-4.3-2.55-2.18-.46-1-1.63-1.19-2.84-1v9.53A22.44,22.44,0,0,0,577,420Z" transform="translate(-571.1 -272.39)"/><path class="cls-14" d="M577,420a94,94,0,0,1,12.8-.63c4.64,0,9.62.19,14.14-.7a88.58,88.58,0,0,1,8.87-1.3c1.42-.14,8.14-.7,4.47-2.64-.83-.45-3-1-3.63-.36,1.4-1.27-3.82-2.27-4.82-.81H609c-.39.05-1.85.46-2.62.5a4.38,4.38,0,0,1-1.55-.22,9.65,9.65,0,0,0-1,.19l-.09,0a1.08,1.08,0,0,1,0,.18,3.33,3.33,0,0,1-3.31,3.31,3,3,0,0,1-1.09-.2,3.65,3.65,0,0,1-1.45.09c-3.79-.54-7.31,2.07-11.27,1.64-2-.22-4-1-6-.81a36.5,36.5,0,0,1-5.53.34c-1.32-.06-2.61-.18-3.89-.31v2A22.44,22.44,0,0,0,577,420Z" transform="translate(-571.1 -272.39)"/><path class="cls-10" d="M615.48,433.67c.63-.68.23-1.39.95-1.88s2.91-.17,3.82-.36c1.74-.36,3.55-1.73.88-2.58,2.84-.21,5.79,0,8.57-.82,3-.9,2.17-2.16.17-3.53-2.78-1.91-5.69-2.23-8.63-2.49v.17c-1.49,0-3-.05-4.43-.17a12.59,12.59,0,0,0-2.87-.17c-.56.1-.9.53-1.31.63-3.06.74-6.33-.54-9.5.08-1.41.28-2.7.92-4.14,1.08-1.91.21-3.87-.06-5.79,0-3.14.15-6.28.34-9.47.34-4.25,0-8.42.37-12.63.65v9.47h42.84A2.71,2.71,0,0,0,615.48,433.67Z" transform="translate(-571.1 -272.39)"/><path class="cls-11" d="M590.57,431.29c2.1-2,5.23-1.82,8.13-2.15a88.08,88.08,0,0,0,9.38-1.78,47.7,47.7,0,0,0,6.53-2.33c1.52-.58,3.26-.43,4.64-1.32.55-.36,1-.56,1.18-1.2a2.48,2.48,0,0,0-2.33-.34h0c-2,0-4.28-.24-6.14.37s-.91,1.34-1.86,2.09c-1.21,1-4.16.37-5.59.37-2.8,0-5.85-.36-8.61,0-1.31.17-1.93.91-3,1.35-1.46.57-3.23.42-4.77.61-4.39.54-8.72,1.09-13.11,1.54-1.3.13-2.59.31-3.87.51v5.13h14A11.94,11.94,0,0,0,590.57,431.29Z" transform="translate(-571.1 -272.39)"/><path class="cls-11" d="M618.09,422.18h0Z" transform="translate(-571.1 -272.39)"/><path class="cls-10" d="M673.19,426.82a9.48,9.48,0,0,1-2.32,0c-.59-.17-.8-.69-1.36-.84-.91-.25-2.76-.13-3.33.53-.62-.68-2.87-.76-3.81-.85-1.53-.14-2.56.77-4,.83-2.49.11-4.81-1.48-7.3,0h-.16c0-.14.28-.15.14-.47-.49,0-.7-.22-1,0,0-.76-.7-1-1.43-.77.12-.17,0-.54.13-.85-.69-.34-1.36-.77-2-.25.14-2.39-2.75.67-3.14.84-1,.43-3.83-1-4,.69-1.37.25-2.8.43-3.49,1.65a35.73,35.73,0,0,0-7.88,1.36c4.86-.08,9.84-.41,14.69-.15-.08.2,0,.58-.13.78a25.13,25.13,0,0,0,4.59,0,25.52,25.52,0,0,0,2.84-1c2.94-.64,6.79,0,9.8,0s6.11-.06,9.16-.16c2.33-.08,7.12,1,9-.51-2.56,0-5,.17-7.54.35,5-.74,10.49.07,15.33-1.17C681.75,426.85,677.47,426.82,673.19,426.82Z" transform="translate(-571.1 -272.39)"/><path class="cls-10" d="M761.37,433.79l.33-1c-6.89-1.78-15.05-.33-22.13-.33-7.67,0-14.21-2.08-21.64-1s-15.84-1.71-22.89,0c-6.88,1.65-13.82.43-20.95.67-4.05.13-12,.21-17.23,2H764.14C763.86,433.72,763,433.53,761.37,433.79Z" transform="translate(-571.1 -272.39)"/><path class="cls-22" d="M674.7,356.06c-8.54.29-15.66-3.53-24.1-3.53-3.77,0-7.94.45-11,2.16,1.62.19,2.93.94,4.62.93,1.84,0,3.83-.34,5.75-.44,1.74-.09,4-.66,5.76-.23,1.47.35,2.92,1.35,4.41,1.78,1.09.31,1.36-.13,2.17.71s-.4,1.83,1.15,1.74c.68,0,1.36-1.41,2.21-1.53.51-.07,2.14.58,2.88.63a50,50,0,0,0,12.43-1.1c5.41-1,11.12-1.5,16.48-2.05a85.49,85.49,0,0,1,12.62-.36c0,.17,0,.39,0,.55.47-.67,1.51-1.78,1.78-2.13l-1.54-.66C698.21,350.43,686.65,355.66,674.7,356.06Z" transform="translate(-571.1 -272.39)"/><path class="cls-22" d="M588.46,357.17c3.17,1,5.18-1.12,8.18-1.55a34.56,34.56,0,0,1,9.49.18,15.7,15.7,0,0,1-.86-2.17h.22c-1.71-.93-8.73.74-10.84,1.38-4,1.2-7.11.23-11,.17-5.3-.08-9.26,5.13-12.5,10.36V369l.06-.1C575.09,363,580.52,354.59,588.46,357.17Z" transform="translate(-571.1 -272.39)"/><path class="cls-23" d="M579.29,403.92c1.63,0,10.43.56,10.92-.6-2.09-.61-4.45-.22-6.43-.85,0-.15.18-.19.26-.32-.65-.41-.53-.75-1.23-1.06s-1.23,0-1.84-.34c.13-1.43-2.19-3.66-3.35-2.06a1.49,1.49,0,0,0-1.3-.92c1.69-2.54-2.62-4.16-3.17-2.85.16-.91-.91-2-2-2.58v12.85a17.73,17.73,0,0,0,2.88-.32A22.23,22.23,0,0,1,579.29,403.92Z" transform="translate(-571.1 -272.39)"/><path class="cls-4" d="M769.85,310.4c-9.65-2.74-17,0-26.16,3-6.14,2-14.53,2-19.93,5.31-1.92,1.19-2.3,2.12-4.9,2.37-3.15.31-9.74-1.52-12.38.39-2.07,1.49-.15,1.83-1,3.26-1,1.7-2.52,1.82-4.69,2-13.62,1.21-27.36.46-41,1.67-1.43.13-2.87.3-4.32.43,2.43.34,4.94.95,7,1.15,5.06.48,10.2.15,15.28.47,1.17,2.53,6.82,1.06,9.06,1.18,3.18.17,5.11,1.66,8,2.09a39.92,39.92,0,0,0,10.66-.41c4.09-.6,8-.19,12-1.18,5.11-1.25,9.94,1.27,14.91,0,1.84-.46,2.81-1.71,5-1.36s3.21,1.3,5.15,1.6c7.69,1.2,14.89-1.4,22.52.68,9.39,2.56,19.42.18,29.09.5v-26C785.23,310.15,779,313,769.85,310.4Z" transform="translate(-571.1 -272.39)"/><path class="cls-4" d="M649.78,329a32.25,32.25,0,0,0,5.64-.15A13.2,13.2,0,0,0,649.78,329Z" transform="translate(-571.1 -272.39)"/><path class="cls-4" d="M754.71,318.22a.27.27,0,0,0,.06-.16Z" transform="translate(-571.1 -272.39)"/><path class="cls-4" d="M779.78,321.06c-3.76,0-7.58.16-11.31-.06.36-.76.07-1.71.24-2.56-2.37-.19-4.91-1.56-7.22-.16-1.32-1.7-4.93-.86-6.75-.23a.48.48,0,0,0-.1.12c0,.05,0,.09,0,.14l.09-.09.06-.16a.27.27,0,0,1-.06.16l-.1.31a2.37,2.37,0,0,1-.18.53l.18-.53a1.62,1.62,0,0,0,0-.22c-.08.06-.13.05,0-.14a3,3,0,0,0-1.76-2.37,2.57,2.57,0,0,0-1.34-4.79c2.52-3.37,1.52-9.21-1.37-12-2.38-2.28-11.31-4-10.81,1.31-2.64-1.82-5.56.18-5.31,3.32-2.33.07-4.82-.28-5.34,2.68-1.5-.65-3.2-1-4.57.26,3.73-8-13.21-8.95-12.76.06-3-.34-6.11,1.8-5.67,5-1.9-.4-3.3.63-3,2.67a5.78,5.78,0,0,0-3.22,0c-.44-3.58-3.68-2.25-5.32-.89-2,1.64-2.06,3.74-2.12,6.2-2.14.07-4.68-.31-5.28,2.29-.38-4.53-4.25-2.31-6.41-2.3s-7.59-2.56-7.65,1.68c-1.67,0-1.61,1.23-2.87,1.72a10.36,10.36,0,0,1-3.15.66c-3.51.39-7.9-1-11,.66-.54.29-.85,1.48-1.66,2a14.72,14.72,0,0,1-3.65,1.26c-3,.88-6.09,1.95-9.23,2.08,12,.3,24.14-2.22,36.17-1.61.93,3.82,7.72,1.26,10.4,1.54,1.67.18,2.79.81,4.92.74,1.73-.06,3.16-.31,5-.28-.91,8,14.87,9.36,16.45,2.32a6.16,6.16,0,0,0,5.19-.71c.93-.54,1.12-1.89,2.08-2.3.54-.22,1.68.63,2.41.33,1.72-.72,3.09-2.25,4.59-2.71a21.1,21.1,0,0,0,2.34.37c.25,0,1.94-1.47,2.28-1.66.07,5.26,7.81,3,9.63.07,1,2.61,4.55,1.33,6.72,1.59,1.85.22,3,.63,5,1.06,3.53.74,3.31-1.32,6-2.11.88-.26,2.63.45,3.68.36a14.54,14.54,0,0,0,3.08-.93c3.83-.92,8.38-1.71,12.29-2.4,2.92-.52,12.46,1.13,14.33-1C791,319.76,783.46,321.06,779.78,321.06Z" transform="translate(-571.1 -272.39)"/><path class="cls-4" d="M754.62,318.31c0-.05,0-.09,0-.14C754.49,318.36,754.54,318.37,754.62,318.31Z" transform="translate(-571.1 -272.39)"/><path class="cls-4" d="M754.61,318.53l-.18.53A2.37,2.37,0,0,0,754.61,318.53Z" transform="translate(-571.1 -272.39)"/><path class="cls-24" d="M699.33,451.06c20.21-.76,39.78-6.6,60.09-7.6,7.21-.35,15.1-.27,22.11-2.07,4.05-1,4.17-2.77.24-4.32a6.28,6.28,0,0,0-4.34-.35H766.77c-4.82,0-8.43.85-12.93,1.76-7.87,1.59-16.34-2.28-24.26.89-8.15,3.27-17.3,2.21-26.1,2.94-7.91.67-15.73,1.08-23.79,1.08-23.82,0-47.08.07-70.85,2.09-12.53,1.06-25.16,1.83-37.74,3V458.6c16-.29,32-1,47.93-1.53C645.89,456.25,672.52,452.07,699.33,451.06Z" transform="translate(-571.1 -272.39)"/><path class="cls-24" d="M624.75,480.39c8.72,0,20.33-1.77,28.67,1.08-5.48,2.48-13,3.15-19,4.5-9.26,2.08-18.78,4.4-28.22,5.43a455.78,455.78,0,0,0,74.3-6.68c1.6-.28,8-.52,8.94-2.07.72-1.27-1.24-2.66-1-3.84,1.56-7.64,21-2.75,25.79-5.66,2.78-1.7.5-2.15,1.57-4.1s3.73-2.19,6.32-2.59c9.14-1.4,18.44-1.54,27.59-2.82,9.57-1.35,19-2.79,28.68-3.67,5.06-.46,10.42-1.34,15.76-1.9V444.82a26.21,26.21,0,0,0-14.38,4c-10.45,6.74-24.85,2.41-36.75,3.81-4.8.57-9.43,1.73-14.26,2.09-8.06.6-16-.55-24-.34-4.27.12-5.87,1.58-9.28,3.36s-7.18,1.22-11.22,1.32c-8.05.19-19.21.58-26.1,5-2.56,1.64-2.63,2-6,2-7.88.08-15.77-.08-23.65,0-4.45,0-8.62.94-13,1.25-9.29.66-18.64.47-27.95,1-5.47.3-10.91.64-16.34,1.07v10.75c5.31.16,10.62.27,15.95.27Z" transform="translate(-571.1 -272.39)"/><path class="cls-24" d="M783.41,466.05c-6.31,1.66-17,1.22-22.22,5.36,10.77-.27,22-.14,32.91-.9v-7.45C790.57,464.15,787,465.11,783.41,466.05Z" transform="translate(-571.1 -272.39)"/><path class="cls-6" d="M723.6,466.34c-5.07-2.64-10.52-4.4-15.47-7.35a107.65,107.65,0,0,0-16.55-8.32c-2.74-1.07-3.46-2.19-5-4.43-2.06-3-3.55-.84-5.93-2.52-1.81-1.28-1.23-5.5-4.14-5.33-2.19.14-8.59,4.33-10.13,5.75-10.92,10.07-22.56,19.45-35.73,26.36l-1.38,1.09c-.27.59,9.93,1.74,11.8,1.92a119.62,119.62,0,0,0,21.66,0A210.74,210.74,0,0,1,685,472.41c9.58.12,19.27-.27,28.9-.27C717.19,472.14,732.37,470.91,723.6,466.34Z" transform="translate(-571.1 -272.39)"/><path class="cls-22" d="M716.29,463c-4.29-1.91-8.15-5.32-12.07-8-3.1-2.08-6.42-3.55-9.62-5.43a70.31,70.31,0,0,1-6.81-4.87c-2.26-1.69-4.36-.69-6.67-1.56-2.54-1-2.43-3.34-4.33-4.94-2.83-2.37-8.1,4.09-10.43,5.94a353.33,353.33,0,0,1-38,26v1c2.28,2.3,9.36,1,12.5,1,1.33,0,5.5.32,5.95-1.49.57-2.26-4.31-2.71-5.61-2.75,1.67-1.26,2.9-2.57,4.84-3.45,2.53-1.15,5.51-1.49,7.83-3.07,1.77-1.21,2.74-3,4.48-4.24s5.32-2.23,5.22-4.46c-1.26,0-2.91.7-3.75-.3,1.83-1.92,4.91-3.23,7.05-5,2-1.64,4.76-4.54,7.18-5.43,2.77-1,2,1.15,3.54,2.95,1.89,2.18,3.24.92,5.72,1.29.4,1.75,3.48,2.73,5,3.51,3.43,1.73,6.71,3.42,10.08,5.27,4.12,2.26,8.37,4.43,12.44,6.73s9.73,6.61,14.75,5.9C723.82,465,719.05,464.18,716.29,463Z" transform="translate(-571.1 -272.39)"/><path class="cls-7" d="M720.65,465.32c-4.87-2-10.31-4.24-14.72-7.1-5.47-3.54-13.75-5.6-17.6-11,0,3.1,1.12,6.26.22,9.42a7.56,7.56,0,0,1-3.95,4.82c-2.36,1.05-4.88-.57-7.14.79-1.88,1.14-1.5,2.19-3.86,2.15a3.78,3.78,0,0,1-2.57-.69c-2.12-1.51-1-2.88-4-.76-6.19,4.44-12.29,9.63-20.46,9.7v.75c8.18-.51,16.71-1.15,25-1.5,9.21-.39,18.73-.3,27.92-.75,6.69-.33,13.26.65,19.83-.26,1.57-.22,5.07-.12,5.75-2C725.89,466.72,722.31,466,720.65,465.32Z" transform="translate(-571.1 -272.39)"/><path class="cls-22" d="M746.57,465.38a42.71,42.71,0,0,1-9.28-2.68c-3-1.36-5.69-3.1-8.94-3.06l1.25-.5c-5.42,0-9.87,2.45-15,2.76-4.88.3-9.73-.52-14.56-.26a31,31,0,0,0-12.69,3.06c-3.61,1.91-5.63,5.83-9.75,6.69-4.9,1-16.74.86-18.41,7.27,3.88.26,8.8-2.23,12.61-3a62.28,62.28,0,0,1,6.62-1.26c1.17-.11,3.13.29,4.19-.23,1.81-.89,3-3.11,5-4.19a48.8,48.8,0,0,1,7.94-3.32c6.55-2.1,13.8-1.75,20.56-1,3.15.35,4,0,6.55-1.44a11.77,11.77,0,0,1,6-1.55c3.37,0,5.23,2.6,8.38,3.39,3.77.94,7.65.45,11.44,1.54a103.37,103.37,0,0,1,10.18,3.62c2.23.91,5.47,3.2,7.71,3.41C765.5,466.9,751.86,466.44,746.57,465.38Z" transform="translate(-571.1 -272.39)"/><path class="cls-6" d="M746.9,466.14c-2.8-.38-5.61-1.12-8.3-1.7-1.67-.35-3.53-1.87-5.25-1.55l.75-.5c-2.53-3.57-8.37-1.62-11.45-.19-3.79,1.76-6.76.68-10.85.69-8.86,0-20.62,0-27.45,6.49-4.72,4.5-10.8,3.93-16.93,5.07-1.59.3-9.72,1.47-7.6,4.38,1.16,1.6,6.88,1,8.54,1.06,2.89.07,6.79,0,9.46,1.31,1.09.53,1.56,1.44,2.52,2,2.2,1.28,5,1.12,7.51,1.24,4.55.24,9.94-.83,14.24.5,12.07,3.73,26.71,2.3,39.26,1.21,2.91-.26,5.78-.37,8.27-2,1.09-.72,1.09-1.33,2.47-1.76,4.15-1.3,10.1,1.14,13.51-2.61C773.33,471.26,751.64,466.77,746.9,466.14Z" transform="translate(-571.1 -272.39)"/><path class="cls-7" d="M731.85,460.89a.19.19,0,0,1,0-.1,2.72,2.72,0,0,0-.54-.15Z" transform="translate(-571.1 -272.39)"/><path class="cls-7" d="M731.89,460.79l.07,0C731.94,460.76,731.91,460.75,731.89,460.79Z" transform="translate(-571.1 -272.39)"/><path class="cls-7" d="M747.35,467.94a59.4,59.4,0,0,1-9-2.55c-2.06-.87-4.33-3.78-6.39-4.57a10.48,10.48,0,0,1,.14,2.63c-.21,1.43-.92,1.55-1,3s2.92,8.29-1.25,7.2c-1.14-.29-.64-1.82-1.47-2.2-2-.92-2.32,1.3-3,2.7s-1.33,3.53-3.08,3.95c-2.2.52-1.45-.7-2.17-2.46-1.66-4.09-7.24-3.12-10.5-1.3-3.47,1.94-5.43,3.51-9.5,2.75-2.46-.46-5.42,0-7.75-.43-2.07-.41-.75-.94-1.74-1.52a6.26,6.26,0,0,0-3.71-.74c-4.29,0-9,.82-13.3,1.25-2.27.22-11.36-.36-12.7,1.81-1.14,1.85,5.28,1.18,6.46,1.19a30.52,30.52,0,0,1,7.93,1c4.25,1.19,7.28,4,11.86,4s8.85-1.84,13.2-.57a96.57,96.57,0,0,0,11.74,3.08c8.76,1.43,19.18.87,28,0,2.14-.22,4.25-.2,6.25-1.06s3.59-2,5.75-2.39c3.89-.77,10.29.21,13.2-3.12C772.64,471.14,751.08,468.86,747.35,467.94Z" transform="translate(-571.1 -272.39)"/><path class="cls-24" d="M770.85,481.89c-6.19-.32-14.4-1.53-20.52-.25-2,.41-3.39,1.92-5.48,2.56a46,46,0,0,1-9.44,1.68c-7.51.7-15.56,1.07-23-.24-4.49-.79-8.83-3-13.26-3.25-2.07-.1-5.64-.25-7.3.5l3,.5a27.27,27.27,0,0,0-6.31.3c-2.63.26-5.13-.09-7.75-.05-3.91.06-8,1-11.87,1.56-4.25.64-10.33.91-14.06,2.87,5.75,2.36,14,.63,20,.37,7.58-.31,15.1-.55,22.71-.55,4.59,0,7.44,2,12.1,2,6,0,11.94-.32,17.94-.5,12.29-.37,24.59-1.05,36.81-2,3.36-.26,10.21.68,12.46-2.7S773,482,770.85,481.89Z" transform="translate(-571.1 -272.39)"/><path class="cls-25" d="M596.67,490c.44-.2,1.32-1.92,2.88-1.67.36.06.78-.16,1.15-.13.91.07,2.58-1.45,3.69-2.05.85-.46,2.17.22,3-.19a7.1,7.1,0,0,0,3-2.37c1.16-1.79,2.17-3.27,3.19-5.19.44-.82.37-2.2,1-2.65.45-.33,1.34-.17,1.83-.24.67-.09.17-1,.19-1.86-.41.53-1.1.24-1.52-.05-.77-.52-.71-1.37-.71-2.58l-.08-.38c-.69.13-.87,1.77-1,2.61a24.55,24.55,0,0,1-.64,3.16,6.77,6.77,0,0,1-.29,1.26,11.12,11.12,0,0,1-2,2.76c-1.79,2-4.15,2.11-6.27,2.71a68.07,68.07,0,0,0-6.78,2.56,10.38,10.38,0,0,0-4.6,4.11c-1.33,1.94-2.63,3.92-4.31,5.1l-.8.52h4.37a20.54,20.54,0,0,1,2.26-3.54A7.86,7.86,0,0,1,596.67,490Z" transform="translate(-571.1 -272.39)"/><path class="cls-26" d="M592.82,492.93a8.66,8.66,0,0,1,1.89-2.62,12,12,0,0,1,2-1.23c.66-.42,1.06-1.4,1.78-1.58a4.44,4.44,0,0,1,1,0,3.14,3.14,0,0,0,.87-.19h.08a9.2,9.2,0,0,0,1-.12,1.91,1.91,0,0,0,1.14-.45c.46-.41.64-1,1.18-1.18a11.25,11.25,0,0,1,3.06-.25c1.18-.1,2.32-1.17,3.28-2.19a16.31,16.31,0,0,0,3.36-6c.14-.41.32-.78.44-1.2.18-.64.16-1,.62-1.06a5.24,5.24,0,0,1,1.12,0,7.76,7.76,0,0,0,1.09-.2,6.83,6.83,0,0,0-.08-1.11,1.19,1.19,0,0,1-2-.44c-.77-2.28.34-4.54,1.89-4.32,1.15.17,2,1.28,3.22.93,1-.3,1.55-.05,2.38.89s1.65,1.19,2.39,1.95c.28.28.35.56.56.05s.06-.46-.11-.7a12.78,12.78,0,0,0-2.07-1.85c-.64-.58-1.6-2.07-2.36-2.07-.55,0-1.09.28-1.66.25a5,5,0,0,1-2.31-1.19c-.49-.34-1.1-1.05-1.61-1.12-.94-.15-1.88,1.39-2.54,2.18s-1.34-.19-1.76-1.19c-.19-.43-.26-1.07-.45-1.43s-.26-.2-.36-.44a2.31,2.31,0,0,1-.11-.69c-.15-.8-.19-.51-.6-.58s-.73-.92-1.11-1l-.19.25c-.15.28-.12.67-.29.94a6.8,6.8,0,0,0,.69,1.05,1.61,1.61,0,0,1,.43.7c0,.25-.13.54,0,.81s.18,0,.24.13a1.26,1.26,0,0,1,.21.31c.09.17.14.48.22.68.18.49.31,1.06.51,1.49a2.18,2.18,0,0,1-1.93-.35c-.48-.43-.87-1.55-1.37-1.76a3.6,3.6,0,0,0,1.12,2.25c-.76-.09-1.46.54-2.2.25a4.84,4.84,0,0,1-1.15-.83c-.3-.26-.62-.85-1-.74a4.31,4.31,0,0,0,2.87,2.33,7.22,7.22,0,0,1-.59,1.91l.12.12a8.37,8.37,0,0,0,.74-1.81c.27-.62.59-.72,1.08-.6A2.27,2.27,0,0,0,609,470c.44-.13.86.26,1.26.56,1.34,1,1.65,3.38,1.13,5.43a9.62,9.62,0,0,1-1.48,2.87,4.53,4.53,0,0,1-2.49,1.55,6.05,6.05,0,0,1-1.7,0c-.5,0-1,.07-1.47.08a6,6,0,0,0-2.49.58c-.25.11-.77.25-1.23.46a9.1,9.1,0,0,0-1.54.23,4.77,4.77,0,0,0,0-1.6,6.75,6.75,0,0,1-.31-2,4.67,4.67,0,0,1,.71-1.41c.13-.25.63-1.78.14-1.54a2.23,2.23,0,0,1-.36,1.32,4.2,4.2,0,0,0-.65,1.16c-.18-.32-.24-.8-.39-1.15a2,2,0,0,1-.27-1c0-.88,0-1.51.55-1.92a2.09,2.09,0,0,1,.28-1.58,2.47,2.47,0,0,1,1.18-1.08l0-.05c.07,0-.06-.16-.13-.29a9.46,9.46,0,0,0-1.16,1.13,1.51,1.51,0,0,0-.42.67,3.35,3.35,0,0,0-.09,1c-.38.29-.6-.69-.81-1a1.83,1.83,0,0,0-.16.13,2.47,2.47,0,0,1,.42,1.33c0,.52,0,1,0,1.54a7,7,0,0,1-.94-1.17,5.77,5.77,0,0,0-1-.95c-.05.17,0,.17-.16.2.26.23.58.37.84.63a3.66,3.66,0,0,1,.54,1.16c.25.6.56,1,.78,1.67a19.6,19.6,0,0,1,.63,1.92,7.46,7.46,0,0,1-.14,3.33,3.66,3.66,0,0,1-1.15.48c-.24,0-.49.09-.73.15a33,33,0,0,0-.89-4c-.48-1.82-1.08-3.57-1.67-5.31a2.8,2.8,0,0,1-.31-1.49,3.24,3.24,0,0,1,.32-1.24c.46-.91.9-1.87,1.42-2.7a3.91,3.91,0,0,0,.76-1.36,6.88,6.88,0,0,0-.08-1.75c-.07-.64-.15-1.25-.22-1.89a5.85,5.85,0,0,1,.33-2.12l0-.07a1.56,1.56,0,0,0-.59-.55c0,1.14-.13,2.05-.91,1.24a3.66,3.66,0,0,1-.61-.81,2.65,2.65,0,0,0-.69-.82,4.36,4.36,0,0,0,.7,1.52c.34.45.76.56,1,1.24a12.5,12.5,0,0,1,.16,1.43c.16,1,.44,1.82-.09,2.67a10.11,10.11,0,0,1-1.49,1.91c-.42.41-.75,1.13-1.19,1.49l0,0c-.18-.06-.46-1-.58-1.22-.24-.49-.48-1-.74-1.44a15.21,15.21,0,0,0-1.78-2.76c-.69-.79-1.35-1.65-2-2.44a3.81,3.81,0,0,1-1.12-2.74.62.62,0,0,1-.27,0,4.17,4.17,0,0,0-1.39.12s-.1,1.13-.07,1.49a5.47,5.47,0,0,0,.95,2.52c1.34,2,3.16,3.43,4,6.23.22.72,1.25,2.27.72,3-.37.54-1.31-.17-1.71-.5-.86-.72-1.68-1.67-2.52-2.52a31.76,31.76,0,0,1-2.23-2.38c-.34.36-.53.92-.89,1.24a5.17,5.17,0,0,0,1,1.09,10.64,10.64,0,0,0,1.48,4.56c-.25.31-.42.67-.74.77a1.51,1.51,0,0,1-.76,0c-.53-.12-.85-.73-1.15-1.38a3.12,3.12,0,0,0-1.2-1.46,6,6,0,0,1-1.28-.86,3.51,3.51,0,0,0-.67-.44c-.14-.09-.15-.18-.3-.16s-.14.14-.25.13a4.87,4.87,0,0,1,.94.7,4.79,4.79,0,0,0,1,.68,3.31,3.31,0,0,1,1.18,1.4c.22.46.57.91.74,1.38-.3.05-.62-.12-.92-.12a5.51,5.51,0,0,0-.92.12,1.75,1.75,0,0,1-1.4-.45c-.61-.45-1.26-.66-1.87-1.1a2.3,2.3,0,0,1-.75-.65c-.21-.34-.27-.52-.58-.66s-1.19-.43-1.23-.87a.57.57,0,0,1-.21.39c.59.49,1.24.56,1.76,1.31.36.51.57,1,1,1.22a9.51,9.51,0,0,1,1.62,1,1.8,1.8,0,0,0,1.09.45,18.05,18.05,0,0,1-.8,1.66,4.93,4.93,0,0,1-.81,1.46,1.16,1.16,0,0,0,.45.12,7.76,7.76,0,0,1,1.25-2.49,2.88,2.88,0,0,1,.63-.83c.3-.18.74-.05,1.06-.05,1,0,2.05.47,3-.07.56-.32,1-1,1.55-.46a5.56,5.56,0,0,1,.85,1.08c.18.28.31.68.57.79s.64,0,.92.05a1.52,1.52,0,0,1,.72.43,1,1,0,0,1,.21.2l.11.11-.06-.05a.39.39,0,0,0,.19.16,9.6,9.6,0,0,0,1.41,1c1.31,1,1.28,4.09,1.5,6.31l-.51.3a10.61,10.61,0,0,0-2.58,1.69c-.26.26-.42.65-.67.93a3.37,3.37,0,0,1-1.59.77,21.76,21.76,0,0,0-2.57.89,8.37,8.37,0,0,0-2.87,1.86c-.84.9-1.74,1.65-2.58,2.54a10,10,0,0,0-.87,1.1H591.4l0,0A8.93,8.93,0,0,0,592.82,492.93Zm-4.28-17a1.44,1.44,0,0,1-.69-.17,7.56,7.56,0,0,1-1.55-1.41c-.39-.37-.92-.1-1.3-.46a4.51,4.51,0,0,1-.9-1.7,8,8,0,0,1-.4-2c.43.46.87.84,1.33,1.25a31.06,31.06,0,0,1,3,3.12,9,9,0,0,1,.91.94,1.1,1.1,0,0,1,.16.37A3.13,3.13,0,0,0,588.54,476Z" transform="translate(-571.1 -272.39)"/><path class="cls-27" d="M589.41,477.57l-.08,0,.34.29,0-.06Z" transform="translate(-571.1 -272.39)"/><path class="cls-26" d="M586.28,474.36c-.39-.37-.92-.1-1.3-.46a4.51,4.51,0,0,1-.9-1.7,8,8,0,0,1-.4-2c.42.45.86.82,1.3,1.23-.14-.33-.28-.67-.41-1-.29-.74-.57-1.51-.83-2.3-.15-.17-.3-.34-.44-.53-.35.36-.54.92-.9,1.24a5.42,5.42,0,0,0,1,1.09,10.5,10.5,0,0,0,1.48,4.56c-.25.31-.42.67-.74.77a1.4,1.4,0,0,1-.76,0c-.53-.11-.85-.71-1.15-1.37a3.07,3.07,0,0,0-1.2-1.46,6.05,6.05,0,0,1-1.27-.86,3.93,3.93,0,0,0-.68-.44c-.14-.09-.15-.18-.3-.17s-.14.15-.25.14a5.2,5.2,0,0,1,.94.7,4.79,4.79,0,0,0,1,.68,3.38,3.38,0,0,1,1.18,1.4,15.28,15.28,0,0,1,.74,1.38c-.3.06-.62-.12-.92-.12a5.51,5.51,0,0,0-.92.12,1.78,1.78,0,0,1-1.4-.44c-.61-.46-1.26-.67-1.87-1.11a2.32,2.32,0,0,1-.75-.66c-.2-.34-.27-.51-.58-.65s-1.19-.43-1.23-.87a.57.57,0,0,1-.21.39c.59.49,1.24.56,1.76,1.3.36.52.57,1,1,1.23a10.2,10.2,0,0,1,1.62,1,1.77,1.77,0,0,0,1.09.45,17.05,17.05,0,0,1-.8,1.67,5.23,5.23,0,0,1-.8,1.45,1.07,1.07,0,0,0,.44.12,7.76,7.76,0,0,1,1.25-2.49,2.88,2.88,0,0,1,.63-.83c.3-.18.74,0,1.06,0,1,0,2.05.47,3-.07.56-.32,1-1,1.55-.46a5.56,5.56,0,0,1,.85,1.08c.18.28.31.68.57.79a1.3,1.3,0,0,0,.44.05c-.52-.75-1-1.53-1.51-2.35C586.55,474.63,586.42,474.49,586.28,474.36Z" transform="translate(-571.1 -272.39)"/><path class="cls-28" d="M592.8,492.92a8.59,8.59,0,0,1,1.89-2.63,12.39,12.39,0,0,1,2-1.23c.66-.43,1.06-1.4,1.78-1.58a4,4,0,0,1,1,0,3.14,3.14,0,0,0,.87-.19h.08c.36,0,.68-.09,1-.12a1.85,1.85,0,0,0,1.14-.45,3.72,3.72,0,0,0,.52-.62c-3.76.06-7.18-.53-10.7-4,.14,1.06.18,2.2.28,3.17-.16.11-.33.21-.51.31a10.37,10.37,0,0,0-2.57,1.69c-.27.26-.43.65-.69.93a3.25,3.25,0,0,1-1.58.77,21.76,21.76,0,0,0-2.57.89,8.37,8.37,0,0,0-2.87,1.86c-.84.9-1.74,1.65-2.58,2.54a10.38,10.38,0,0,0-.88,1.12h12.86s0,0,0-.05A9,9,0,0,0,592.8,492.92Z" transform="translate(-571.1 -272.39)"/><path class="cls-26" d="M583.39,467.63c-.21-.31-.46-.53-.68-.83s-.46-.67-.71-1a13.45,13.45,0,0,1-1.83-1.86,3,3,0,0,1-.5-1.42,9.09,9.09,0,0,1,.11-1.39,4.44,4.44,0,0,0,0-1.16.44.44,0,0,0-.55-.33c0,.56.15,2.28-.37,2.37-.19,0-.32-.24-.46-.42a2.45,2.45,0,0,0-.7-.7,8.2,8.2,0,0,0-2.22-.75,10.12,10.12,0,0,1-.3,1c.59-.21,1.32.45,1.8.89a2.33,2.33,0,0,1,1,1.88c0,.66.24.76.62.86s.65.51,1,.77a5.56,5.56,0,0,1,1.35,1.16c.28.35.54.74.82,1.08a9,9,0,0,0,1.39,1.63c.28.21,1,.81,1.06,0s-.55-1.19-.77-1.67Z" transform="translate(-571.1 -272.39)"/><path class="cls-29" d="M608.48,473.08h0l0,0Z" transform="translate(-571.1 -272.39)"/><path class="cls-29" d="M611.58,481.51c0,.21,0,.41,0,.62C611.57,481.92,611.57,481.72,611.58,481.51Z" transform="translate(-571.1 -272.39)"/><path class="cls-26" d="M598.81,458a15.34,15.34,0,0,0,.44-3.14c-.64.32-.37.84-.5,1.7a8.83,8.83,0,0,1-.47,1.82c-.53,1.29-1.61,1.73-2.43,2.45l-.09.06c-1,1.13-.64,3.75-.12,5.08a20.44,20.44,0,0,0-.1-2.7,4,4,0,0,1,1.33-2.32,16.69,16.69,0,0,1,1.85-1.74c.75-.53,1.55-.6,2.23-1.4s1-2,1.65-2.58a1.66,1.66,0,0,1-.39-.26C601.44,456.26,600.31,458.73,598.81,458Z" transform="translate(-571.1 -272.39)"/><path class="cls-26" d="M591.25,460.49c-.52,1.31-1.46,2.18-2.55,1.89a8,8,0,0,1,.32-1.75,10.41,10.41,0,0,0,.17-1.69c1-.52,2.23-3.22,2.14-4.71a.65.65,0,0,0-.39,0c0,1.24-.94,4.47-2.07,4-.14-.06-.2-.27-.4-.31s-.24.05-.36.06a1.62,1.62,0,0,1-.76-.12,2.81,2.81,0,0,1-1.39-1.38c-.13.1-.29.2-.43.29.23.21.53.29.78.52s.51.81.82,1.07,1,0,1.47.26a10.77,10.77,0,0,1-.94,4.82l0,.19c.09-.24.1.15.17.33s.21.57.32.85.34,1.14.67,1.14c0-.81-.22-2.44.31-2.89s1.17-.18,1.74-.89a5.08,5.08,0,0,0,.69-1c.17-.34.21-.85.4-1.08a2.46,2.46,0,0,1,1.78-.57A.74.74,0,0,1,594,459a9.17,9.17,0,0,1-1.73.36C591.49,459.48,591.59,459.65,591.25,460.49Z" transform="translate(-571.1 -272.39)"/><path class="cls-26" d="M616.17,459.26c-.53.22-.53.64-.84,1.24a4.07,4.07,0,0,1-2.78,2.31,3.68,3.68,0,0,0,.1-1.87c-.16-.51-.71-.82-1-1.08a11.8,11.8,0,0,1-2.06-2.57l-.49.37a13.13,13.13,0,0,1,1.69,2.16c.39.56,1.31,1,1.39,1.75.13,1.22-.82,4.2-1.66,4.71l-.26-.13a5.28,5.28,0,0,0-.18.88,3.18,3.18,0,0,0,.49,1.18c.3.55.77,1.44,1.34,1.26,0-.57-.34-1.06-.36-1.68a4.21,4.21,0,0,1,.17-1.34c.14-.46.36-.89.5-1.37a4.05,4.05,0,0,1,.42-1.3c.26-.34.72-.37,1-.56s.82-.49,1.22-.75a2.62,2.62,0,0,0,.86-1c.22-.4.3-1.07.49-1.39s.92-.51,1.24-.68.85-.65,1.2-.59a3.65,3.65,0,0,0-.13-.5C617.76,458.68,617,458.93,616.17,459.26Z" transform="translate(-571.1 -272.39)"/><path class="cls-26" d="M628.66,462.2c-1.09,0-2.19,1-3.14,1.68s-1.84-.13-2.64.58a7.17,7.17,0,0,0-1.16,1.86c-.37.69-.79,1.4-1.12,2.09l-.18.26c.42-.31,1,.85,1.38,1.05,0-.17,0-.37,0-.55a9.64,9.64,0,0,1,1-3.33c.47-1.07.87-.81,1.71-.82.35,0,.73,0,1,.27s.28.71.47,1c.45.65,1.31.95,1.65,1.63a3.39,3.39,0,0,0,.17-.48,6.28,6.28,0,0,1-1.66-2c-.52-1.12.33-1.28.9-1.69s1.23-1,2-.95,1.17.64,1.78.94C631.05,462.59,629.1,462.21,628.66,462.2Z" transform="translate(-571.1 -272.39)"/><path class="cls-26" d="M604.44,460.07a4.48,4.48,0,0,0-1.92.12,1.77,1.77,0,0,1-.85.08,3.9,3.9,0,0,1-.85-.7c-.53-.43-1-1.31-1.57-.7l-.22.06c1.24.21,2.16,2.83,3.49,2.07,1-.59,2.17-.83,3,.43a1.84,1.84,0,0,1,.37-.54c-.23-.06-.46-.33-.67-.45A4,4,0,0,0,604.44,460.07Z" transform="translate(-571.1 -272.39)"/><path class="cls-26" d="M624,478c-.53-.11-.74-.62-1.19-1a1.86,1.86,0,0,0-1.32-.24,5.43,5.43,0,0,1-1.82-.3c-.51-.18-2.34-1.81-1.08-2.09a12.22,12.22,0,0,0,2.15-.43c.79-.32,1.28-1.14,1.9-1.81-.16-.15-.31-.37-.47-.51a3.55,3.55,0,0,1-3.4,1.75c-.51,0-1.2.13-.64-.71a2.91,2.91,0,0,1,1.39-1.06.87.87,0,0,1,.14-.61,4.17,4.17,0,0,0-2.59,1.67c-.31.4-.49.94-.94,1.09a1.7,1.7,0,0,1-1.3-.32l-.13.31c.26,0,.51.82.84.94s.8-.12,1.17,0,.48.56.71.84a4.54,4.54,0,0,0,1.08.94,6.59,6.59,0,0,0,2.41,1.05c.4.06.86,0,1.26.06s.51.45.85.71a3.06,3.06,0,0,0,2.68.35,2.43,2.43,0,0,1,0-.67C625.16,478,624.59,478.15,624,478Z" transform="translate(-571.1 -272.39)"/><path class="cls-26" d="M586.82,450.47c-.42.54-.59,1.4-1.08,1.85a4,4,0,0,0-1.22,1.52c-.71-1-.65-3-.27-4.16a6.55,6.55,0,0,0,.55-2,5.44,5.44,0,0,0,0-1.4c-.18-.3-.4.13-.65.13a3.43,3.43,0,0,1-.33,1.75,7.32,7.32,0,0,0-.65,1.51c-.34,1.33,0,2.64-.11,3.95-.24-.07-.45-.45-.67-.64s-.54-.39-.79-.62a3.16,3.16,0,0,1-.58-.68c-.31-.48-.19-.48-.68-.44l-.05.12c1.71,1.6,3.54,3.46,3.54,6.54,0,1.93-.09,3.74,1.11,5.06,0-.58.67-.61.81-1.11a10.59,10.59,0,0,0,.14-1.5,10.2,10.2,0,0,0-.33-3c-.1-.49-.23-1-.35-1.53a9.71,9.71,0,0,1-.39-1.39c0-1.16,1.11-1.52,1.5-2.26.52-1,.64-1.61,1.53-2.17.38-.24.94-.35,1.15-.83a4.89,4.89,0,0,0,.18-1.07.37.37,0,0,0-.25-.12C588.9,449.79,587.62,449.45,586.82,450.47Z" transform="translate(-571.1 -272.39)"/><path class="cls-26" d="M581.19,455.27c-.33,0-.44.17-.67.53s-.3.68-.48,1-.39.43-.57.69c.09-.93-.29-1.49.1-2.39.29-.65.41-1.45.7-2.07-.38.27-.42.07-.62.66-.13.38-.29.74-.42,1.13a8.47,8.47,0,0,0-.23,2.63c-.4-.3-1-1.42-1.5-1.31l.06.05c0,.08,1.24,1.4,1.4,1.84a4.88,4.88,0,0,1,.21,1.55,5,5,0,0,1-.14,1.51c-.2.73-.27.66-.79.66a7,7,0,0,0,.33.94c.11.35.28,1,.56,1.08,0-.24-.07-.52,0-.75s.23-.36.31-.62,0-.75.09-1.12a8.41,8.41,0,0,0,.18-2.36,2.78,2.78,0,0,1,0-1.12c.14-.36.46-.62.63-1a5.83,5.83,0,0,1,.53-1.06c.3-.33.43-.14.75-.17l.12.1a.75.75,0,0,1,.34-.41A4.51,4.51,0,0,0,581.19,455.27Z" transform="translate(-571.1 -272.39)"/><path class="cls-26" d="M597.23,455.37a2.54,2.54,0,0,1-.71,1.4c-.21.26-.64.85-.9.9,0-.62-.25-1.31,0-1.8s.72-.83.83-1.62a8.67,8.67,0,0,1-1,1.32c-.23.19-.29.2-.54.08s-.42-.31-.6-.28l0,.09c1,.25.94,2.6.94,3.67a6.77,6.77,0,0,1-.18,1.7c-.16.64-.24.76-.73.81.17.41.55.64.75,1.06a4.18,4.18,0,0,1,.06-.51c.09-.34.11-.24.32-.4s.56-.3.42-.77a2,2,0,0,1-.21-.85c0-.36,0-.71,0-1.08a3.49,3.49,0,0,1,0-1c.11-.24.47-.44.63-.63a4.16,4.16,0,0,0,1.07-2.06A.45.45,0,0,0,597.23,455.37Z" transform="translate(-571.1 -272.39)"/><path class="cls-26" d="M581.82,467.24v.19a11.24,11.24,0,0,1-1.1,1.08,4.32,4.32,0,0,1-2.62.8,4.09,4.09,0,0,1-2.41-.79,3.42,3.42,0,0,1-1-.89c-.07.13-.14.27-.2.4a3.74,3.74,0,0,1,.81.67,4.51,4.51,0,0,0,1.1.76,4.34,4.34,0,0,0,2.42.17,7.45,7.45,0,0,0,2.11-.8,1.71,1.71,0,0,1,.84-.28c.25.05.54.47.81.34C583.25,468.56,582.4,466.83,581.82,467.24Z" transform="translate(-571.1 -272.39)"/><path class="cls-25" d="M634.06,457.13c-.44-.16-.78.68-1,1.09a3.45,3.45,0,0,1-1.24,1.2c-.92.47-1.87,0-2.79-.08.25-.87,1.26-1.73,1.1-2.85-.44.12-.64.78-.91,1.28a3.21,3.21,0,0,1-1.19,1.34,2.85,2.85,0,0,1-1.45.26c-.39,0-1,.28-1.3.14,0-1.45,1.24-3,1.82-4,.29-.52.43-1.19.7-1.71a2.69,2.69,0,0,1,1.11-1.09c-.15-.58-.34-1.56-.83-1.53-.34,0-.72.86-1.07,1-.63.2-.82-.35-1,.81a6.1,6.1,0,0,1-.1,1.08c-.14.31-.36.12-.53.34-.56.75-.66,2.41-1.22,3.3-.78,1.26-1.78-.12-2.46-1-.41-.55-.77-1.36-1.29-1.67a2,2,0,0,0-1.34-.08c-1.1.17-1.86,1-2.82,1.73a3.92,3.92,0,0,1-2.7,1,2.55,2.55,0,0,0-2.65.8c-.78.78-2.18,1.34-3,2.05a9,9,0,0,0-1.94,2.5l.05.16c.14.28.17.66.52.56s.63-.79.86-1c.51-.54,1.07-.94,1.59-1.48a8,8,0,0,1,1.55-1.57c1.08-.61,2.4-.16,3.54-.49s2.66-1.17,3.86-.85c1.82.5,3,3.58,3.79,5.93,1-.54,1-1.86,1.52-3s1.69-.92,2.5-1a15.27,15.27,0,0,1,3.44-.16,3.78,3.78,0,0,0,2.69-.1,22,22,0,0,0,1.82-1.7C634,458.07,634.84,457.4,634.06,457.13Z" transform="translate(-571.1 -272.39)"/><path class="cls-25" d="M654.05,490.31c-2.19-1.5-3.9-4.05-5.63-6.55a13.41,13.41,0,0,0-6-5.26,88.64,88.64,0,0,0-8.86-3.29c-2.77-.77-5.84-.87-8.19-3.48a14.25,14.25,0,0,1-2.56-3.54,7.44,7.44,0,0,1-.38-1.63,30.56,30.56,0,0,1-.84-4.05c-.13-1.08-.37-3.19-1.27-3.36l-.11.5c0,1.55.08,2.64-.92,3.31-.55.37-1.44.74-2,.07,0,1.16-.63,2.26.25,2.38.63.09,1.8-.12,2.39.31.8.58.7,2.34,1.27,3.39,1.34,2.48,2.66,4.37,4.17,6.67a9.31,9.31,0,0,0,3.94,3.05c1.14.52,2.86-.35,4,.25,1.45.77,3.62,2.71,4.81,2.63.48,0,1,.24,1.5.17,2-.34,3.18,1.87,3.77,2.13a10.21,10.21,0,0,1,3.05,2.43c1.44,1.5,2.18,3.58,3.47,5.35.54.75,1.43.82,2.11,1.12a16.19,16.19,0,0,1,2.76,1.56,7.16,7.16,0,0,1,1.14.92h3.33C658.21,492.55,655.82,491.53,654.05,490.31Z" transform="translate(-571.1 -272.39)"/><path class="cls-30" d="M662.48,486.31a11.26,11.26,0,0,0-3.74-2.39,31,31,0,0,0-3.36-1.14,4.22,4.22,0,0,1-2.07-1c-.33-.37-.54-.87-.89-1.2a14.19,14.19,0,0,0-3.36-2.18,7.26,7.26,0,0,1-.67-.38c.3-2.85.24-6.85,2-8.09a12.21,12.21,0,0,0,1.83-1.3.55.55,0,0,0,.26-.21l-.07.06.13-.13a1,1,0,0,1,.28-.27,2.14,2.14,0,0,1,.94-.55c.37-.07.84.08,1.2-.06s.51-.65.74-1a6.75,6.75,0,0,1,1.12-1.38c.76-.67,1.29.18,2,.59,1.26.69,2.6.09,3.93.09.41,0,1-.16,1.38.07a3.47,3.47,0,0,1,.83,1.06,9.46,9.46,0,0,1,1.62,3.2,1.6,1.6,0,0,0,.59-.15,6.46,6.46,0,0,1-1-1.88c-.33-.68-.79-1.42-1.05-2.13a2.37,2.37,0,0,0,1.43-.58,12.44,12.44,0,0,1,2.11-1.27c.6-.32.88-.91,1.35-1.58.67-.95,1.53-1,2.29-1.67a.72.72,0,0,1-.27-.5c-.05.56-1.26,1-1.6,1.12s-.49.4-.76.84a3.1,3.1,0,0,1-1,.84c-.8.56-1.65.83-2.44,1.42a2.32,2.32,0,0,1-1.83.57,7.71,7.71,0,0,0-1.2-.16c-.4,0-.82.23-1.2.16a19,19,0,0,1,1-1.77,4.39,4.39,0,0,1,1.54-1.8,5.72,5.72,0,0,0,1.28-.88,8,8,0,0,1,1.23-.9c-.15,0-.21-.16-.32-.17s-.21.1-.4.22a5.64,5.64,0,0,0-.88.56,7.89,7.89,0,0,1-1.66,1.11,4,4,0,0,0-1.58,1.87c-.39.84-.8,1.62-1.49,1.77a2.07,2.07,0,0,1-1,0c-.42-.14-.64-.6-1-1,.78-1.58,2-3.71,1.93-5.86a7.24,7.24,0,0,0,1.31-1.4c-.48-.41-.72-1.13-1.17-1.59a40.24,40.24,0,0,1-2.91,3.05c-1.09,1.09-2.16,2.32-3.29,3.24-.52.41-1.75,1.33-2.24.64-.68-1,.67-3,1-3.89,1.09-3.59,3.46-5.42,5.21-8a7,7,0,0,0,1.24-3.23,18.28,18.28,0,0,0-.1-1.91,5.65,5.65,0,0,0-1.81-.16.83.83,0,0,1-.35,0,4.81,4.81,0,0,1-1.46,3.52c-.91,1-1.77,2.12-2.68,3.13a19.46,19.46,0,0,0-2.33,3.55c-.33.59-.65,1.22-1,1.84-.16.3-.52,1.5-.75,1.57l0,0c-.58-.46-1-1.38-1.56-1.9a13.43,13.43,0,0,1-1.94-2.45c-.7-1.11-.33-2.14-.12-3.43a17.46,17.46,0,0,1,.2-1.85c.26-.86.8-1,1.25-1.58a5.62,5.62,0,0,0,.9-2,3.57,3.57,0,0,0-.89,1.06,5,5,0,0,1-.79,1c-1,1-1.14-.13-1.2-1.59a1.85,1.85,0,0,0-.76.71l.05.07a7.46,7.46,0,0,1,.42,2.73c-.08.82-.19,1.61-.28,2.43a9,9,0,0,0-.11,2.25,5.12,5.12,0,0,0,1,1.74c.68,1.07,1.25,2.29,1.85,3.47a4,4,0,0,1,.43,1.58,3.59,3.59,0,0,1-.42,1.92c-.77,2.24-1.55,4.48-2.18,6.83a40.31,40.31,0,0,0-1.15,5.17c-.32-.08-.64-.15-1-.2a4.73,4.73,0,0,1-1.5-.62,9.34,9.34,0,0,1-.18-4.27,22.33,22.33,0,0,1,.82-2.47c.28-.79.69-1.37,1-2.13a4.65,4.65,0,0,1,.72-1.5c.33-.33.74-.51,1.08-.81-.15,0-.14,0-.19-.25a6.94,6.94,0,0,0-1.28,1.22,8.72,8.72,0,0,1-1.23,1.49c0-.7,0-1.3,0-2a3.1,3.1,0,0,1,.55-1.7,1.12,1.12,0,0,0-.2-.18c-.27.44-.57,1.7-1.07,1.33a4,4,0,0,0-.12-1.31,2,2,0,0,0-.53-.87,14.5,14.5,0,0,0-1.52-1.44c-.09.16-.26.36-.17.37l0,.06a3.29,3.29,0,0,1,1.55,1.39,2.67,2.67,0,0,1,.35,2c.69.52.72,1.33.72,2.46a2.49,2.49,0,0,1-.35,1.33c-.2.46-.27,1.07-.5,1.48a6,6,0,0,0-.86-1.49,2.85,2.85,0,0,1-.47-1.69c-.64-.3,0,1.66.18,2a5.91,5.91,0,0,1,.93,1.82,8.73,8.73,0,0,1-.4,2.51,6.25,6.25,0,0,0,0,2.07,10.61,10.61,0,0,0-2-.3c-.59-.28-1.28-.46-1.6-.6a8,8,0,0,0-3.26-.74c-.65,0-1.25-.14-1.91-.1a7.86,7.86,0,0,1-2.22,0,5.91,5.91,0,0,1-3.26-2A12.23,12.23,0,0,1,624,466.1c-.68-2.63-.27-5.68,1.47-7,.52-.38,1.07-.88,1.64-.72a2.94,2.94,0,0,0,1.76-.09c.63-.15,1.06,0,1.41.78a10.41,10.41,0,0,0,1,2.31l.15-.14a9.19,9.19,0,0,1-.77-2.46c1.45-.13,2.73-1.39,3.75-3-.45-.14-.88.62-1.27.95a6.19,6.19,0,0,1-1.5,1.07c-1,.37-1.88-.44-2.87-.33a4.51,4.51,0,0,0,1.46-2.88c-.65.27-1.16,1.71-1.79,2.26a2.91,2.91,0,0,1-2.52.45c.27-.56.44-1.28.67-1.91a6.5,6.5,0,0,1,.28-.88,4.18,4.18,0,0,1,.27-.41c.09-.12.23.08.33-.15s-.08-.72,0-1.05.37-.63.56-.9a8.35,8.35,0,0,0,.9-1.35c-.22-.34-.18-.84-.37-1.2l-.26-.32c-.49.08-.87,1.18-1.45,1.26s-.59-.28-.77.74a3.76,3.76,0,0,1-.14.89c-.14.31-.34.29-.48.56-.25.47-.34,1.29-.58,1.84-.56,1.29-1.35,2.65-2.3,1.53s-2.1-3-3.32-2.81c-.67.11-1.47,1-2.11,1.45a6.48,6.48,0,0,1-3,1.52c-.74,0-1.45-.32-2.17-.32-1,0-2.24,1.92-3.09,2.67a17,17,0,0,0-2.69,2.36c-.22.31-.39.32-.15.9s.37.29.73-.06c1-1,2.2-1.47,3.12-2.5,1.09-1.2,1.77-1.53,3.12-1.14,1.57.45,2.7-1,4.2-1.19,2-.3,3.47,2.61,2.46,5.54-.45,1.31-1.79,1.15-2.57.56a9.73,9.73,0,0,0-.11,1.43,11.24,11.24,0,0,0,1.43.25,7.12,7.12,0,0,1,1.46,0c.6.13.57.55.81,1.36.16.54.39,1,.57,1.55a21.24,21.24,0,0,0,4.39,7.68c1.25,1.3,2.74,2.68,4.29,2.81,1.33.11,2.69-.16,4,.32.71.26.94,1,1.54,1.51a2.46,2.46,0,0,0,1.5.57,12.13,12.13,0,0,0,1.35.16h.1a4.07,4.07,0,0,0,1.14.24,6.09,6.09,0,0,1,1.35,0c.94.24,1.46,1.49,2.32,2a16.46,16.46,0,0,1,2.64,1.58,11,11,0,0,1,2.46,3.37,11.72,11.72,0,0,0,1.81,3.11,9.66,9.66,0,0,0,2.71,1.81,28.21,28.21,0,0,0,3.24,1.36c.68.25,1,.79,1.47,1.28h11.86a20.34,20.34,0,0,0-3.56-5.81C664.76,488.43,663.58,487.47,662.48,486.31Zm-9.15-20.87a15.11,15.11,0,0,1,1.19-1.21,39.7,39.7,0,0,1,4-4c.59-.53,1.18-1,1.74-1.6a10.09,10.09,0,0,1-.53,2.61,5.8,5.8,0,0,1-1.18,2.19c-.48.47-1.18.12-1.69.59a9.78,9.78,0,0,1-2,1.81,1.82,1.82,0,0,1-.9.22,6.5,6.5,0,0,0-.79-.14A1.88,1.88,0,0,1,653.33,465.44Z" transform="translate(-571.1 -272.39)"/><path class="cls-27" d="M652.5,468.37l-.06.07.44-.37-.1,0Z" transform="translate(-571.1 -272.39)"/><path class="cls-31" d="M670.38,461.43c-.41.19-.49.4-.76.84a2.93,2.93,0,0,1-1,.85c-.79.55-1.64.82-2.44,1.41a2.36,2.36,0,0,1-1.82.58,6.67,6.67,0,0,0-1.2-.16c-.4,0-.82.22-1.21.15.23-.61.68-1.18,1-1.77a4.31,4.31,0,0,1,1.55-1.79,6.64,6.64,0,0,0,1.28-.88,6.53,6.53,0,0,1,1.23-.9c-.15,0-.21-.17-.33-.17s-.21.09-.39.21a5.21,5.21,0,0,0-.88.56,8.21,8.21,0,0,1-1.67,1.11,4.05,4.05,0,0,0-1.57,1.87c-.39.84-.8,1.63-1.5,1.77a2,2,0,0,1-1,0c-.42-.13-.64-.59-1-1,.77-1.57,2-3.71,1.93-5.85a7.21,7.21,0,0,0,1.3-1.41c-.47-.4-.72-1.13-1.17-1.58-.19.23-.38.45-.58.67-.34,1-.7,2-1.08,3-.17.44-.35.87-.54,1.3.58-.52,1.15-1,1.7-1.58a10.2,10.2,0,0,1-.52,2.62,5.87,5.87,0,0,1-1.18,2.19c-.49.46-1.18.11-1.69.58-.18.18-.36.35-.52.53-.63,1.06-1.29,2.06-2,3a1.34,1.34,0,0,0,.57-.06c.35-.13.52-.65.75-1a7.37,7.37,0,0,1,1.11-1.38c.77-.67,1.3.19,2,.6,1.25.69,2.6.09,3.92.09.42,0,1-.17,1.39.07a3.55,3.55,0,0,1,.82,1.05,9.75,9.75,0,0,1,1.63,3.2,1.51,1.51,0,0,0,.59-.15,6.4,6.4,0,0,1-1-1.87,23.34,23.34,0,0,1-1-2.13,2.45,2.45,0,0,0,1.43-.59,13.13,13.13,0,0,1,2.11-1.27,4.61,4.61,0,0,0,1.35-1.57c.67-.95,1.52-1.05,2.29-1.67a.71.71,0,0,1-.27-.51C671.93,460.88,670.72,461.28,670.38,461.43Z" transform="translate(-571.1 -272.39)"/><path class="cls-32" d="M662.51,486.28a11.26,11.26,0,0,0-3.75-2.38,28.32,28.32,0,0,0-3.36-1.14,4.41,4.41,0,0,1-2.07-1c-.33-.36-.54-.87-.89-1.2a13.75,13.75,0,0,0-3.36-2.17c-.23-.12-.45-.25-.67-.39.13-1.24.2-2.71.37-4.07-4.6,4.43-9.06,5.2-14,5.12a4.53,4.53,0,0,0,.68.79,2.45,2.45,0,0,0,1.49.58,12.31,12.31,0,0,0,1.36.16h.1a4.28,4.28,0,0,0,1.14.24,5.46,5.46,0,0,1,1.34,0c.94.23,1.47,1.48,2.33,2a16.88,16.88,0,0,1,2.63,1.59,10.71,10.71,0,0,1,2.47,3.37,11.61,11.61,0,0,0,1.81,3.11,9.65,9.65,0,0,0,2.7,1.8,28.21,28.21,0,0,0,3.24,1.36c.7.26,1,.82,1.5,1.31h11.84a20.51,20.51,0,0,0-3.56-5.84C664.78,488.4,663.61,487.44,662.51,486.28Z" transform="translate(-571.1 -272.39)"/><path class="cls-30" d="M668.13,446.74a3.31,3.31,0,0,0-.92.91c-.17.22-.34.58-.58.53-.68-.12-.47-2.32-.49-3a.57.57,0,0,0-.72.42,5.65,5.65,0,0,0-.07,1.49,11.79,11.79,0,0,1,.15,1.79,3.89,3.89,0,0,1-.66,1.83,17.83,17.83,0,0,1-2.38,2.38,12.78,12.78,0,0,0-.93,1.23c-.29.39-.61.67-.9,1.07l-.1.21c-.28.62-1,1.22-1,2.14s1,.27,1.38,0a11.68,11.68,0,0,0,1.82-2.09c.37-.44.7-.95,1.08-1.4a7.29,7.29,0,0,1,1.75-1.48c.5-.33.76-.83,1.34-1s.82-.26.82-1.12a3,3,0,0,1,1.35-2.4c.64-.58,1.58-1.42,2.35-1.15-.1-.45-.31-.82-.39-1.31A11.48,11.48,0,0,0,668.13,446.74Z" transform="translate(-571.1 -272.39)"/><path class="cls-29" d="M627.88,462.35h0l0,0Z" transform="translate(-571.1 -272.39)"/><path class="cls-29" d="M623.83,473.17c0,.26,0,.53,0,.79C623.84,473.7,623.84,473.43,623.83,473.17Z" transform="translate(-571.1 -272.39)"/><path class="cls-30" d="M669.08,423.31a2.26,2.26,0,0,1-2.34,1.16,3.89,3.89,0,0,0-2.84.42,31.59,31.59,0,0,0-3.17,3.08,9,9,0,0,0-2.39,2.52,5.9,5.9,0,0,0-.46,1.4c-.1.62.09,1.31,0,2-.11,1-.36.56-.69-.08s-.48-1.1-.72-1.66c-.45-1-1.39-1.3-1.69-2.48-.35-1.39,1.15-3.49,1.59-4.73a2.93,2.93,0,0,0,.25-1.28.67.67,0,0,0-.42,0,10.68,10.68,0,0,1-1.42,2.92,8.47,8.47,0,0,0-.66,1.43c-.15.51-.17,1.39-.55,1.67a6.32,6.32,0,0,0-2.51-1.37c-.49-.17-1-.4-1.47-.62-.66-.29-.57.09-.73.71a10.52,10.52,0,0,1,4.27,2.93,14.53,14.53,0,0,1,2.56,4.16,18.38,18.38,0,0,1,1.42,3.52,36,36,0,0,1,.39,3.76,16.46,16.46,0,0,1,.11,3.84,5.85,5.85,0,0,1-.39,1.56c-.16.36-.86,1.14-.8,1.51a3.92,3.92,0,0,0,1.19,1.14c.38,0,.85-.86,1-1.26a6.33,6.33,0,0,0,.81-3.33c0-3.66.28-7.59-.39-11.12-.25-1.33-.8-3.42-.06-4.62a8.83,8.83,0,0,1,1.61-1.57c.71-.71,1.37-1.49,2.11-2.17,1.17-1.08,2.09-1.92,3.5-1.9.44,0,.91.26,1.3.18a11,11,0,0,0,2.39-1.46C669.63,423.55,669.3,423.64,669.08,423.31Z" transform="translate(-571.1 -272.39)"/></g></g></svg>