<svg width="20" height="20" viewBox="0 0 20 20" fill="none" xmlns="http://www.w3.org/2000/svg">
<path d="M10 6.6676C8.16502 6.6676 6.66752 8.1651 6.66752 10.0001C6.66752 11.8351 8.16502 13.3326 10 13.3326C11.835 13.3326 13.3325 11.8351 13.3325 10.0001C13.3325 8.1651 11.835 6.6676 10 6.6676ZM19.995 10.0001C19.995 8.6201 20.0075 7.2526 19.93 5.8751C19.8525 4.27509 19.4875 2.85509 18.3175 1.68509C17.145 0.512595 15.7275 0.150095 14.1275 0.0725948C12.7475 -0.00490523 11.38 0.00759481 10.0025 0.00759481C8.62252 0.00759481 7.25502 -0.00490523 5.87752 0.0725948C4.27752 0.150095 2.85752 0.515095 1.68752 1.68509C0.515021 2.85759 0.152521 4.27509 0.0750209 5.8751C-0.00247908 7.2551 0.010021 8.6226 0.010021 10.0001C0.010021 11.3776 -0.00247908 12.7476 0.0750209 14.1251C0.152521 15.7251 0.517521 17.1451 1.68752 18.3151C2.86002 19.4876 4.27752 19.8501 5.87752 19.9276C7.25752 20.0051 8.62502 19.9926 10.0025 19.9926C11.3825 19.9926 12.75 20.0051 14.1275 19.9276C15.7275 19.8501 17.1475 19.4851 18.3175 18.3151C19.49 17.1426 19.8525 15.7251 19.93 14.1251C20.01 12.7476 19.995 11.3801 19.995 10.0001V10.0001ZM10 15.1276C7.16252 15.1276 4.87252 12.8376 4.87252 10.0001C4.87252 7.1626 7.16252 4.87259 10 4.87259C12.8375 4.87259 15.1275 7.1626 15.1275 10.0001C15.1275 12.8376 12.8375 15.1276 10 15.1276ZM15.3375 5.86009C14.675 5.86009 14.14 5.3251 14.14 4.6626C14.14 4.00009 14.675 3.4651 15.3375 3.4651C16 3.4651 16.535 4.00009 16.535 4.6626C16.5352 4.81991 16.5044 4.97572 16.4443 5.12109C16.3842 5.26647 16.296 5.39856 16.1847 5.5098C16.0735 5.62103 15.9414 5.70923 15.796 5.76934C15.6506 5.82945 15.4948 5.86029 15.3375 5.86009V5.86009Z" fill="#191E19"/>
</svg>
