<svg width="44" height="87" viewBox="0 0 44 87" fill="none" xmlns="http://www.w3.org/2000/svg">
<g clip-path="url(#clip0_45_10352)">
<path d="M22 8.25C22.3647 8.25 22.7144 8.39487 22.9723 8.65273C23.2301 8.91059 23.375 9.26033 23.375 9.625V15.125C23.375 15.4897 23.2301 15.8394 22.9723 16.0973C22.7144 16.3551 22.3647 16.5 22 16.5C21.6353 16.5 21.2856 16.3551 21.0277 16.0973C20.7699 15.8394 20.625 15.4897 20.625 15.125V9.625C20.625 9.26033 20.7699 8.91059 21.0277 8.65273C21.2856 8.39487 21.6353 8.25 22 8.25ZM33 30.25C33 33.1674 31.8411 35.9653 29.7782 38.0282C27.7153 40.0911 24.9174 41.25 22 41.25C19.0826 41.25 16.2847 40.0911 14.2218 38.0282C12.1589 35.9653 11 33.1674 11 30.25V13.75C11 10.8326 12.1589 8.03473 14.2218 5.97183C16.2847 3.90893 19.0826 2.75 22 2.75C24.9174 2.75 27.7153 3.90893 29.7782 5.97183C31.8411 8.03473 33 10.8326 33 13.75V30.25ZM22 0C18.3533 0 14.8559 1.44866 12.2773 4.02728C9.69866 6.60591 8.25 10.1033 8.25 13.75V30.25C8.25 33.8967 9.69866 37.3941 12.2773 39.9727C14.8559 42.5513 18.3533 44 22 44C25.6467 44 29.1441 42.5513 31.7227 39.9727C34.3013 37.3941 35.75 33.8967 35.75 30.25V13.75C35.75 10.1033 34.3013 6.60591 31.7227 4.02728C29.1441 1.44866 25.6467 0 22 0V0Z" fill="#F1F1EA"/>
</g>
<path d="M22 72.92L14.24 65.16L15.36 64.04L22 70.68L28.64 64.04L29.76 65.16L22 72.92Z" fill="#F1F1EA"/>
<defs>
<clipPath id="clip0_45_10352">
<rect width="44" height="44" fill="white"/>
</clipPath>
</defs>
</svg>
