<svg id="Layer_1" data-name="Layer 1" xmlns="http://www.w3.org/2000/svg" viewBox="0 0 1335.3 430"><defs><style>.cls-1{fill:#32c05c;}.cls-2{fill:#38a344;}.cls-3{fill:#ffe68b;}.cls-4{fill:#a82f2f;}.cls-5{fill:#18c6e0;}.cls-6{fill:#dc4da0;}.cls-7{fill:#6946a8;}.cls-8{fill:#c2884a;}.cls-9{fill:#a36f40;}.cls-10{fill:#b7428b;}.cls-11{fill:#2bace2;}.cls-12{fill:#00aeef;}.cls-13{fill:#27aae1;}.cls-14{fill:#fff;}.cls-15{fill:#231f20;}.cls-16{fill:#e55f9f;}.cls-17{fill:#d68345;}.cls-18{fill:#191e19;}.cls-19{fill:none;stroke:#333;stroke-miterlimit:10;stroke-width:3px;}</style></defs><rect x="327.86" y="54.63" width="6.02" height="305.99"/><g id="BG"><path class="cls-1" d="M269.62,141.52C260,120.66,241.9,95.16,218.47,75s-52.19-35.14-83.24-35.13a96,96,0,0,0-13.66,1C85.4,46,58.26,65.82,40.07,93.65S12.72,157.24,12.72,194.09a227.8,227.8,0,0,0,1.22,23.51,214.41,214.41,0,0,0,31.35,90.86c17,27,40,49.32,67.4,62.88l.47.23c.81.4,1.6.79,2.39,1.15a152.76,152.76,0,0,0,15,6.08c.74.25,1.45.49,2.17.71,3.08,1,6,1.85,8.69,2.57h0c.81.21,1.59.42,2.36.6s1.7.41,2.51.6l.57.11.2.55c1.8,4.76,3.45,9.1,4.89,13,.32.86.63,1.68.92,2.48,1.3,3.5,2.43,6.59,3.37,9.15s1.49,4.12,1.86,5.22a23.93,23.93,0,0,1,.73,2.6h0a55.91,55.91,0,0,1,1.63,12.29c0,4.79-.92,10-4.13,14.37a42.56,42.56,0,0,1-3,3.43,12.13,12.13,0,0,0-2.18,2.95,5,5,0,0,0-.47,2.12V452a6.21,6.21,0,0,0,.13.73,7.34,7.34,0,0,0,.91,2.25c.82,1.37,2.71,2.64,5.29,3.59a46.44,46.44,0,0,0,9.15,2.22,128.8,128.8,0,0,0,18.2,1.2h3.47c13.07-.45,22.63-1.91,29.77-3.75A59.75,59.75,0,0,0,233,452.08a31.52,31.52,0,0,0,6.86-5.08,15.14,15.14,0,0,0,3.89-6.39,14.27,14.27,0,0,0,.57-4,22,22,0,0,0-.87-5.59c-5.92-22.9-8.4-30.43-8.69-31.25v-.12c-.92-3.06-2.44-8-4.33-14.15-1.19-3.87-2.88-9.88-4.41-15.38a9.43,9.43,0,0,1-.55-2.46,3.15,3.15,0,0,1,.34-1.48h0a3.48,3.48,0,0,1,.93-1.09l.14-.08h0l.09-.08.13-.05c21.13-8.87,36.7-26.62,47.06-49.33s15.44-50.38,15.44-78.79C289.61,203.85,282.81,170,269.62,141.52ZM239.43,277.91c-3.79,14.63-11.3,31.1-23.86,44-.34.34-.67.69-1,1s-.69.69-1,1c-.71.67-1.43,1.33-2.17,2l-.9.78c-.72.6-1.46,1.2-2.21,1.8-.37.31-.76.6-1.14.87s-.77.6-1.16.86l-.6.43c-.21.13-.39.28-.6.41-.51.36-1,.71-1.55,1s-1,.68-1.58,1-1,.63-1.55.93a.3.3,0,0,1-.11.06c-.53.32-1.06.6-1.61.91l-1.07.6a1.06,1.06,0,0,1-.21.11q-.59.32-1.2.6a69.88,69.88,0,0,1-7.94,3.35l-.55.19c-.59.21-1.18.41-1.8.6-1,.31-2,.6-3,.85l-.85.24c-.86.21-1.72.42-2.61.6a.58.58,0,0,1-.14,0h0a8.36,8.36,0,0,1-.95.2c-1.61.32-3.27.6-5,.83-.4.05-.78.11-1.2.15-1,.12-2,.23-3,.3-1.35.12-2.73.2-4.12.24-.43,0-.85,0-1.29,0h-1.76c-.74,0-1.5,0-2.25,0H158c-8.49,0-17.45-2.77-26.38-7.67a113.24,113.24,0,0,1-26.21-20.65c-1-1-1.93-2-2.88-3.08-.44-.48-.88-1-1.31-1.46-.75-.84-1.49-1.69-2.22-2.56s-1.48-1.73-2.2-2.63c-1.35-1.64-2.67-3.31-4-5-.45-.6-.89-1.2-1.31-1.75-.6-.79-1.16-1.59-1.72-2.4s-1-1.46-1.54-2.2c-.26-.37-.52-.75-.77-1.13-1.32-1.94-2.61-3.93-3.86-5.94-.64-1-1.25-2-1.86-3.07h0l-1.2-2.09c-.4-.69-.81-1.4-1.2-2.11-.86-1.54-1.71-3.09-2.53-4.66-.31-.6-.59-1.2-.92-1.8q-1.05-2.07-2.06-4.19l-1-2.13q-1.55-3.36-3-6.81c-.33-.78-.66-1.57-1-2.39-.56-1.42-1.1-2.85-1.63-4.28-.24-.66-.48-1.33-.71-2q-.59-1.65-1.14-3.33v-.07a129.58,129.58,0,0,1-6.29-24.11,202,202,0,0,1-3-34.37,162.54,162.54,0,0,1,2.4-28.55v-.06a69.68,69.68,0,0,1,2.39-10,151.91,151.91,0,0,1,5.89-16C72,123.55,79.63,109.92,90.27,99.23c7.09-7.12,15.53-12.94,25.43-16A61.48,61.48,0,0,1,135.32,80a76.43,76.43,0,0,1,11.41.91c23.23,3.55,42.46,17.51,57.43,36.26s25.75,42.32,32.15,65.28,8.57,41.32,8.57,56C244.91,256,241.88,268.43,239.43,277.91Z" transform="translate(-10.54 -37.67)"/><path class="cls-2" d="M271.59,140.61c-9.81-21.17-28-46.84-51.72-67.28S167,37.67,135.24,37.67a99,99,0,0,0-14,1c-36.82,5.25-64.58,25.56-83,53.8S10.54,156.88,10.54,194.09a224.17,224.17,0,0,0,1.25,23.74,216.19,216.19,0,0,0,31.66,91.79c17.16,27.29,40.44,49.9,68.27,63.68l1.86.9c.8.39,1.6.76,2.4,1.12a153.54,153.54,0,0,0,14.51,5.75c.75.25,1.48.49,2.2.71,2.55.84,5,1.54,7.27,2.17l2.29.59c1,.27,2,.51,3,.74q2.91,7.68,5.19,13.8h0c.3.84.59,1.66.89,2.44,1.09,2.93,2.05,5.54,2.87,7.79.94,2.58,1.49,4.11,1.84,5.17a21.73,21.73,0,0,1,.68,2.39h0a52.38,52.38,0,0,1,1.59,11.81c0,4.52-.88,9.28-3.7,13.05-1.15,1.56-2.59,2.88-3.83,4.34a12.42,12.42,0,0,0-1.61,2.44,7,7,0,0,0-.66,3v.28a9.46,9.46,0,0,0,1.39,4.28,8.85,8.85,0,0,0,2.58,2.59,18.28,18.28,0,0,0,3.75,1.88,59.08,59.08,0,0,0,14.81,3c5.19.49,10.14.6,13.32.6,2.19,0,3.54,0,3.54,0,13.21-.47,22.92-1.93,30.25-3.83a62.17,62.17,0,0,0,16-6.33,34.32,34.32,0,0,0,7.33-5.45,17.3,17.3,0,0,0,4.43-7.31,16.07,16.07,0,0,0,.65-4.62,23.64,23.64,0,0,0-.93-6.13C239.5,407,237,399.61,236.82,399h0c-.93-3.05-2.43-8-4.31-14.13-1.2-3.84-2.89-9.84-4.41-15.33a8.18,8.18,0,0,1-.41-1.89,1.16,1.16,0,0,1,.1-.49l.19-.25.12-.09h0c21.62-9.12,37.53-27.32,48-50.36s15.63-51,15.64-79.7C291.78,203.56,284.93,169.39,271.59,140.61Zm2.58,174.94c-10.37,22.76-26,40.49-47,49.32l-.13.05-.09.08h0l-.14.08a3.38,3.38,0,0,0-.93,1.09h0a3.22,3.22,0,0,0-.37,1.49,9.65,9.65,0,0,0,.49,2.48c1.53,5.49,3.24,11.51,4.41,15.38,1.89,6.14,3.41,11.09,4.33,14.14v.12c.27.82,2.77,8.39,8.73,31.22a21.64,21.64,0,0,1,.86,5.59,13.58,13.58,0,0,1-.57,4,15.11,15.11,0,0,1-3.88,6.4,31.62,31.62,0,0,1-6.87,5.07,59.2,59.2,0,0,1-15.44,6.13c-7.15,1.84-16.71,3.3-29.77,3.75h-3.48a128.89,128.89,0,0,1-18.2-1.2,46.33,46.33,0,0,1-9.14-2.21c-2.58-1-4.47-2.25-5.3-3.6a7.22,7.22,0,0,1-.9-2.25,5.86,5.86,0,0,1-.13-.73v-.45a5,5,0,0,1,.47-2.11,11.74,11.74,0,0,1,2.18-3,40.91,40.91,0,0,0,3-3.43c3.21-4.32,4.12-9.58,4.12-14.37a55.38,55.38,0,0,0-1.62-12.29h0c-.19-.81-.37-1.49-.73-2.59s-.92-2.64-1.86-5.23l-3.37-9.15c-.29-.79-.6-1.62-.93-2.48-1.44-3.87-3.07-8.21-4.88-13l-.2-.54-.57-.12-2.51-.6-2.36-.6h0c-2.71-.71-5.61-1.55-8.7-2.56l-2.16-.72a152.76,152.76,0,0,1-15-6.08c-.79-.36-1.59-.74-2.4-1.15l-.46-.23c-27.42-13.55-50.42-35.87-67.4-62.88a214.42,214.42,0,0,1-31.35-90.85,230.84,230.84,0,0,1-1.23-23.52c0-36.85,9.17-72.63,27.35-100.44S85.4,46,121.58,40.82a96.12,96.12,0,0,1,13.66-1c31,0,59.8,14.9,83.25,35.13s41.5,45.68,51.15,66.54c13.18,28.44,20,62.33,20,95.22C289.61,265.15,284.53,292.79,274.17,315.55Z" transform="translate(-10.54 -37.67)"/><path class="cls-2" d="M236.33,182.47C230,159.54,219.17,136,204.18,117.19S170,84.48,146.75,80.94a76.31,76.31,0,0,0-11.4-.92,61.23,61.23,0,0,0-19.63,3.26c-9.89,3.08-18.33,8.89-25.42,16C79.65,110,72,123.61,66.83,135.53a151.68,151.68,0,0,0-5.88,16,68.71,68.71,0,0,0-2.4,10v.06a162.62,162.62,0,0,0-2.4,28.55,202,202,0,0,0,3,34.37,130.47,130.47,0,0,0,6.29,24.12v.06c.37,1.12.76,2.24,1.15,3.33.22.67.46,1.33.7,2,.53,1.44,1.07,2.87,1.63,4.28.31.8.6,1.59,1,2.4.94,2.3,1.93,4.57,3,6.81l1,2.13c.68,1.4,1.36,2.79,2.06,4.19.31.6.6,1.2.93,1.79.81,1.57,1.66,3.13,2.53,4.66.38.72.79,1.42,1.19,2.12s.81,1.39,1.2,2.08h0c.6,1,1.2,2.06,1.86,3.07,1.26,2,2.53,4,3.86,6,.25.37.51.76.77,1.13l1.54,2.2,1.72,2.39c.43.6.86,1.2,1.31,1.76,1.3,1.72,2.62,3.39,4,5,.72.89,1.45,1.76,2.19,2.63l2.22,2.56c.44.48.87,1,1.32,1.45.94,1.05,1.9,2.08,2.87,3.08a113.34,113.34,0,0,0,26.22,20.65c8.93,4.92,17.89,7.67,26.38,7.67h1.4l2.26,0h1.75c.44,0,.86,0,1.29,0,1.39,0,2.78-.12,4.13-.24,1-.07,2-.19,3-.31.4,0,.79-.09,1.19-.15,1.69-.21,3.36-.5,5-.82.32-.06.63-.12.94-.2h0l.15,0c.89-.18,1.74-.39,2.6-.6l.85-.23c1-.25,2-.54,3-.86.61-.18,1.21-.38,1.8-.59.17-.07.35-.12.54-.19a68.39,68.39,0,0,0,7.94-3.35c.42-.2.82-.41,1.2-.6l.21-.11c.36-.19.72-.38,1.08-.6.54-.29,1.08-.6,1.61-.91l.1-.06c.52-.3,1-.6,1.56-.93s1-.67,1.58-1,1-.68,1.54-1l.6-.42.6-.42c.39-.28.79-.6,1.16-.87s.77-.56,1.14-.86c.75-.6,1.49-1.2,2.21-1.8l.91-.78c.74-.65,1.46-1.32,2.16-2,.36-.34.71-.67,1.05-1l1-1c12.57-12.89,20.06-29.34,23.85-44,2.45-9.48,5.48-22,5.48-39.4C244.91,223.8,242.76,205.53,236.33,182.47Zm1,94.9c-3.72,14.33-11.09,30.49-23.29,43s-29.18,21.46-52.36,21.47c-.75,0-1.5,0-2.27,0H158c-8,0-16.64-2.61-25.33-7.4-13-7.18-26.19-19.16-37.65-34.21a180.51,180.51,0,0,1-27.55-52.27v-.05a128.53,128.53,0,0,1-6.2-23.76,199.57,199.57,0,0,1-3-34,160.7,160.7,0,0,1,2.4-28.21v0h0a88,88,0,0,1,3.88-14.45A140.39,140.39,0,0,1,82.37,112.1c8.53-11.88,19.77-22.3,34-26.69a58.81,58.81,0,0,1,19-3.17,73.82,73.82,0,0,1,11.1.88c22.53,3.44,41.32,17,56,35.46s25.43,41.77,31.74,64.48c6.37,22.88,8.49,40.95,8.49,55.46C242.73,255.71,239.76,267.92,237.31,277.37Z" transform="translate(-10.54 -37.67)"/><path class="cls-3" d="M242.73,238.52c0,17.19-3,29.4-5.39,38.85-3.72,14.33-11.1,30.49-23.3,43s-29.18,21.46-52.35,21.47c-.75,0-1.51,0-2.28,0H158c-8,0-16.65-2.61-25.33-7.4-13-7.18-26.2-19.16-37.65-34.21A180,180,0,0,1,67.5,247.93v-.05a128.41,128.41,0,0,1-6.21-23.76,198.55,198.55,0,0,1-3-34,159.74,159.74,0,0,1,2.39-28.21v0h0a87.09,87.09,0,0,1,3.89-14.45A140.06,140.06,0,0,1,82.4,112.1c8.53-11.88,19.76-22.3,34-26.69a58.9,58.9,0,0,1,19-3.17,73.46,73.46,0,0,1,11.08.88c22.53,3.44,41.32,17,56,35.46s25.43,41.77,31.74,64.48C240.61,206,242.73,224,242.73,238.52Z" transform="translate(-10.54 -37.67)"/></g><g id="DOTS"><path class="cls-4" d="M189,253.6a4.63,4.63,0,0,1-5.14-.65l-.06,0h0a7.18,7.18,0,0,1-1.8-2.08,7,7,0,0,1-1-3.76V247a4.34,4.34,0,0,1,2-3.6c2.23-1.29,5.39,0,7,2.79S191.25,252.3,189,253.6Z" transform="translate(-10.54 -37.67)"/><path class="cls-4" d="M222.08,424.42a4.64,4.64,0,0,1-5.15-.64l-.06,0h0a7.18,7.18,0,0,1-1.8-2.08,7,7,0,0,1-1-3.77v-.1a4.35,4.35,0,0,1,2-3.59c2.24-1.29,5.39,0,7,2.78S224.31,423.13,222.08,424.42Z" transform="translate(-10.54 -37.67)"/><path class="cls-4" d="M219.17,214.56c-3.88.06-7.09,3.6-7.13,7.84a7.22,7.22,0,0,0,7.13,7.6c4.25,0,7.36-3.29,7.34-7.78C226.49,218.2,223,214.51,219.17,214.56Z" transform="translate(-10.54 -37.67)"/><path class="cls-5" d="M166.46,205.48a4.05,4.05,0,0,0-4.44,2.85,6.15,6.15,0,0,0,.5,5.5,3.74,3.74,0,0,0,3.49,1.8,3.65,3.65,0,0,0,3.46-2.36,10.66,10.66,0,0,0,.51-2.22C170,208,168.45,205.84,166.46,205.48Z" transform="translate(-10.54 -37.67)"/><polygon points="123.2 62.18 123.24 62.15 123.13 62.08 123.2 62.18"/><ellipse class="cls-5" cx="202.74" cy="258.14" rx="5.73" ry="3.82"/><ellipse class="cls-6" cx="94.82" cy="78.96" rx="6.37" ry="3.82"/><ellipse class="cls-5" cx="187.46" cy="95.88" rx="4.46" ry="7"/><ellipse class="cls-7" cx="139.22" cy="60.66" rx="5.02" ry="5.73"/><ellipse class="cls-4" cx="76.37" cy="106.39" rx="7" ry="5.09"/><circle class="cls-5" cx="79.92" cy="138.51" r="5.09"/><ellipse class="cls-7" cx="61.07" cy="172.56" rx="5.61" ry="3.58"/><ellipse class="cls-6" cx="208.9" cy="219.46" rx="9.55" ry="5.09"/><ellipse class="cls-6" cx="197.32" cy="128.49" rx="6.94" ry="4.17"/><ellipse class="cls-7" cx="180.11" cy="157.18" rx="6.05" ry="8.53"/><ellipse class="cls-7" cx="197.63" cy="430.16" rx="12.29" ry="8.81" transform="translate(-230.05 168.69) rotate(-37.11)"/><ellipse class="cls-7" cx="199.59" cy="404.11" rx="8.65" ry="12.16" transform="translate(-245.11 245.42) rotate(-48.14)"/><ellipse class="cls-3" cx="205.72" cy="311.3" rx="7.61" ry="4.67"/><ellipse class="cls-7" cx="261.58" cy="264.94" rx="11.41" ry="8.18" transform="translate(-112.36 308.26) rotate(-57.93)"/><ellipse class="cls-5" cx="261.95" cy="259.52" rx="7.82" ry="3.5" transform="translate(-94.56 349.4) rotate(-64.97)"/><ellipse class="cls-6" cx="253.83" cy="169.55" rx="8.52" ry="5.03"/><ellipse class="cls-4" cx="220.68" cy="91.98" rx="8.73" ry="4.53"/><ellipse class="cls-3" cx="203.67" cy="53.67" rx="8.61" ry="6.68"/><ellipse class="cls-3" cx="94.93" cy="34.83" rx="7.58" ry="4.5"/><ellipse class="cls-3" cx="53.65" cy="62.09" rx="6.47" ry="5.83"/><ellipse class="cls-4" cx="234.89" cy="285.57" rx="6.47" ry="5.83"/><ellipse class="cls-6" cx="28.29" cy="108.94" rx="5.45" ry="7.25"/><ellipse class="cls-7" cx="44.38" cy="160.93" rx="6.65" ry="4.17" transform="translate(-127.72 81.23) rotate(-60)"/><ellipse class="cls-3" cx="37.02" cy="213.65" rx="8.68" ry="4.32"/><ellipse class="cls-7" cx="51.88" cy="262.17" rx="8.23" ry="7.08"/><circle class="cls-6" cx="100.01" cy="30.17" r="6.58"/><ellipse class="cls-7" cx="161.69" cy="32.92" rx="8.76" ry="6.57"/><ellipse class="cls-4" cx="23.75" cy="164.23" rx="8.63" ry="7.19"/><ellipse class="cls-6" cx="47.77" cy="254.62" rx="7.53" ry="4.56"/><ellipse class="cls-7" cx="193.2" cy="378.55" rx="13.24" ry="9.09" transform="translate(-235.98 267.65) rotate(-53.04)"/><ellipse class="cls-6" cx="201.12" cy="378.6" rx="8.55" ry="5.2" transform="translate(-219.34 215.43) rotate(-45)"/><ellipse class="cls-5" cx="197.38" cy="363.32" rx="7.27" ry="3.89"/><ellipse class="cls-6" cx="169.6" cy="346.48" rx="5.64" ry="8.35"/><ellipse class="cls-4" cx="181.16" cy="408.07" rx="5.57" ry="10.98" transform="translate(-246.03 209.95) rotate(-45)"/><circle class="cls-3" cx="177.59" cy="399.82" r="8.17"/><ellipse class="cls-7" cx="260.35" cy="163.15" rx="6.08" ry="3.5" transform="translate(-21.65 269.38) rotate(-60)"/><ellipse class="cls-5" cx="241.9" cy="121.11" rx="5.58" ry="7.07"/></g><g id="LADY"><g id="LEGS"><path class="cls-8" d="M165.21,348.37c-.12,3.33-.37,7.19-.85,11.5a100.56,100.56,0,0,1-2.84,17c-3.93,14.12-12.11,23.91-20.19,33.6-3.63,4.35-6.85,7.71-9,9.82a47.61,47.61,0,0,1,5.33,15,67.82,67.82,0,0,1,.8,17.13,73.05,73.05,0,0,1-1.95,12.12,10.13,10.13,0,0,1-2-1.19c-1.94-1.46-2.87-3.27-4.45-6.12-1.72-3.11-2.37-5-3.34-9.63-1.9-9-2.68-12.51-3-18.73-2.29,2.53-4.23,4-5.56,5.54a3.26,3.26,0,0,0-.82,2.6c.59,4.32,1.53,5.2,2.19,16.43.16,2.89-.76,8-2.94,10.93a10.83,10.83,0,0,1-2.22-.78,40.21,40.21,0,0,0-7.89-21.8c-.51-.6-3.24-2.62-4.11-3.72a4,4,0,0,1-.85-3.28,5.07,5.07,0,0,1,.78-2.59,7.17,7.17,0,0,1,3.2-2.18c4.11-1.88,7-5,9.58-7.89,2.37-2.58,6.33-7.72,6.33-9.58,0-1.65-.56-5.91-.6-6.18-1.27-7.13-2-11.84-3.76-23.72-1.66-11.23-3.51-22.06-5.24-29.49a44.34,44.34,0,0,0,18.26,3.43c.86,0,1.69,0,2.51,0q-.6,4.18-1.11,8.73c-.54,5.17-.87,10.08-1,14.7l.08,19.7L143,383.51l7.62-8.63c-.71-1.58-2.9-12.67-4.39-19.68A69.63,69.63,0,0,0,164,349C164.39,348.81,164.79,348.61,165.21,348.37Z" transform="translate(-10.54 -37.67)"/><path class="cls-9" d="M150.62,374.88,143,383.54l-12.43,16.17-.08-19.7c.16-4.62.49-9.53,1-14.7.32-3,.69-5.93,1.11-8.73a10,10,0,0,0,1.1-.05c.38,0,.75,0,1.12,0-.46,3-.84,6.05-1.16,9.05-.51,4.79-.85,9.68-1,14.51l.05,13.28,8.55-11.13,0-.05,0,0,6.8-7.74c-.66-2.4-1.65-7.09-3-13.84-.36-1.76-.7-3.45-1-4.95l1.08-.19,1.06-.19C147.72,362.21,149.92,373.3,150.62,374.88Z" transform="translate(-10.54 -37.67)"/><path class="cls-9" d="M167.43,347.07c-.12,4.34-.41,8.72-.89,13a105.16,105.16,0,0,1-2.91,17.37,70,70,0,0,1-10.78,21.91c-.24.35-.51.71-.77,1.06s-.51.71-.78,1.06c-2.67,3.59-5.5,7-8.31,10.37-2.54,3.05-5.21,6-8,8.82a49,49,0,0,1,4.79,14.22,69.83,69.83,0,0,1,.84,17.68,75.71,75.71,0,0,1-2,12.5l-.62,2.57-2.39-1.1a13.47,13.47,0,0,1-2.37-1.41c-2.22-1.68-3.31-3.67-4.83-6.41l-.21-.4a31.34,31.34,0,0,1-3.56-10.22l-.25-1.16c-1.27-6-2-9.43-2.43-13.17l-.15.14c-.79.74-1.47,1.37-2,2a1,1,0,0,0-.29.86c.17,1.25.36,2.19.6,3.27a75.94,75.94,0,0,1,1.62,13.34c.2,3.53-.91,9.06-3.38,12.36l-.87,1.14-1.38-.33a12.2,12.2,0,0,1-2.8-1l-1-.6,0-1.2a35,35,0,0,0-3.24-13.4,33.15,33.15,0,0,0-4.12-7.07c-.15-.16-.77-.67-1.19-1a21.36,21.36,0,0,1-3-2.78,6,6,0,0,1-1.28-4.79,6.83,6.83,0,0,1,1.2-3.73,8.74,8.74,0,0,1,3.87-2.78l.15-.05c3.64-1.68,6.25-4.5,8.76-7.25l.15-.15c2.88-3.15,5.54-7.1,5.74-8.17,0-1.44-.5-5.33-.57-5.76-1.27-7.23-2-11.89-3.76-23.79q-.69-4.64-1.36-8.79c-.15-.89-.29-1.8-.44-2.64-1.37-8.28-2.67-15-3.82-19.62.44.24.86.46,1.3.67l1.24.6c.75,3.24,1.54,7.15,2.31,11.46.11.6.22,1.23.33,1.86.35,2,.69,4.08,1,6.2.14.86.29,1.73.43,2.6.38,2.4.75,4.88,1.12,7.37,1.76,11.88,2.49,16.59,3.76,23.72,0,.27.6,4.53.6,6.18,0,1.88-4,7-6.32,9.58-2.63,2.86-5.48,6-9.58,7.89a7.26,7.26,0,0,0-3.21,2.18,5,5,0,0,0-.77,2.59,4,4,0,0,0,.85,3.28c.87,1.1,3.59,3.11,4.11,3.72a40.2,40.2,0,0,1,7.88,21.8,10.83,10.83,0,0,0,2.22.78c2.19-2.91,3.1-8,2.94-10.93C119,442.24,118,441.36,117.41,437a3.26,3.26,0,0,1,.82-2.6c1.34-1.52,3.28-3,5.56-5.54.36,6.22,1.13,9.69,3,18.73a29.09,29.09,0,0,0,3.34,9.63c1.58,2.85,2.51,4.66,4.46,6.12a9.76,9.76,0,0,0,2,1.19,74.13,74.13,0,0,0,2-12.12,67.73,67.73,0,0,0-.83-17.12,47.61,47.61,0,0,0-5.33-15c2.1-2.12,5.32-5.48,9-9.82,3.1-3.71,6.21-7.45,9.08-11.42h0c.26-.36.52-.71.77-1.07l.08-.13c.24-.32.47-.63.67-1,.51-.73,1-1.46,1.47-2.21s1-1.52,1.42-2.29l.1-.17q1.32-2.22,2.5-4.61c.2-.42.4-.84.59-1.26s.39-.85.6-1.27.36-.83.54-1.25c.38-.91.74-1.83,1.07-2.8.16-.43.31-.87.45-1.3.09-.24.16-.48.23-.72s.17-.55.26-.82c.14-.43.26-.87.39-1.31a102.26,102.26,0,0,0,2.84-17c.47-4.31.72-8.18.84-11.5l1.11-.64C166.68,347.54,167.05,347.31,167.43,347.07Z" transform="translate(-10.54 -37.67)"/></g><path class="cls-6" d="M189.55,308.53c0,5.72-1.26,20.07-13.57,29.82-3,2.36-5.87,4.45-8.47,6.11-.37.25-.74.48-1.1.71l-1.09.66c-.8.46-1.56.88-2.26,1.24a67.13,67.13,0,0,1-17.25,6l-1.06.2-1.08.18a58.44,58.44,0,0,1-7,.78c-.48,0-1,.06-1.47.07s-.74,0-1.11,0l-1.12,0c-6.59.23-14.15-.07-21.74-3.89l-1.31-.7-.1-.06q-.65-.36-1.26-.75c-11.51-7.13-15.9-19.3-19.44-29.15-5-13.82-5.39-26.24-5.17-35.53.51-22.34,5.71-45.15,15.48-67.93a71,71,0,0,0,2.75,8.15l.45,1.1c3.82,9.3,10.18,24.88,21.48,24.89,12,0,21.52-14.62,24.51-19.77,3.12,3.27,6.9,8.18,11.76,14.51a157.42,157.42,0,0,1,21.15,33.33C186.62,289.6,189.49,300.05,189.55,308.53Z" transform="translate(-10.54 -37.67)"/><path class="cls-10" d="M191.7,308.53v.15c0,6.11-1.43,21.11-14.38,31.38a106.75,106.75,0,0,1-9.87,7l-1.11.66-1.11.64c-.42.24-.81.44-1.2.64a69.43,69.43,0,0,1-17.77,6.19l-1.07.19-1.08.19a61.87,61.87,0,0,1-7.32.83l-1.92.08c-.37,0-.74,0-1.11,0l-1.11.05c-.82,0-1.65,0-2.51,0a43.83,43.83,0,0,1-18.25-3.43,12.82,12.82,0,0,1-1.24-.6c-.42-.22-.86-.42-1.3-.66l-.6-.31c-13.18-7.4-18.09-21.08-21.69-31.06-5.09-14.16-5.5-26.84-5.28-36.31.52-23.48,6.17-47.45,16.77-71.37.12.6.26,1.2.41,1.8s.3,1.14.45,1.71c-9.77,22.76-15,45.59-15.47,67.93-.21,9.28.19,21.71,5.16,35.53,3.55,9.85,7.93,22,19.44,29.14.42.27.83.52,1.26.76l.11.05c.43.24.86.48,1.3.7,7.59,3.82,15.17,4.13,21.74,3.9l1.13,0c.37,0,.73,0,1.1-.05s1-.05,1.48-.07a58,58,0,0,0,7-.78l1.08-.18,1.07-.21a66.81,66.81,0,0,0,17.24-6c.71-.35,1.47-.77,2.26-1.24l1.09-.65c.36-.23.74-.46,1.11-.71,2.59-1.67,5.48-3.75,8.46-6.12,12.32-9.76,13.61-24.11,13.61-29.83,0-8.48-2.9-18.93-8-29.94a156.92,156.92,0,0,0-21.15-33.33c-4.86-6.33-8.64-11.24-11.76-14.51l.56-1c.14-.28.24-.45.31-.6s.16-.28.22-.43c3.31,3.37,7.19,8.43,12.37,15.14C175.7,260.45,191.62,287.34,191.7,308.53Z" transform="translate(-10.54 -37.67)"/><path d="M180.41,152c-3.32,14.68-16.77,26.83-31.82,27.55a32,32,0,0,1-7.51-.55,13,13,0,0,1,2-3.39,33.67,33.67,0,0,1,6.51-6.22c.82-.65,1.67-1.32,2.61-2.1,3.24-2.71,6.59-5.49,8.72-10.12.83-1.8,3.35-7.19,1.47-13.64-.74-2.53-3.09-8.6-9-10.47a11.3,11.3,0,0,0-3.46-.52,15,15,0,0,0-7,1.84c-13.18,6.89-15.82,31.46-15.84,31.7a6.9,6.9,0,0,1-.57,1.84,7.1,7.1,0,0,1-1.37,2c-7.87-9.25-8.94-23.17-4.94-33.92,5.19-13.89,18.82-23,29.94-22.68,5.73.15,13.8.85,22.38,8.38C180.59,128.78,182.72,141.72,180.41,152Z" transform="translate(-10.54 -37.67)"/><path class="cls-9" d="M141,179.07V179a12.37,12.37,0,0,1,2-3.39,32.87,32.87,0,0,1,6.51-6.23c.82-.65,1.67-1.31,2.61-2.1,3.24-2.71,6.58-5.49,8.72-10.12.82-1.8,3.35-7.19,1.47-13.64-.74-2.52-3.1-8.6-9-10.46a11.31,11.31,0,0,0-3.46-.53,15,15,0,0,0-7,1.84c-13.18,6.89-15.83,31.46-15.84,31.7a7.48,7.48,0,0,1-.57,1.85,7,7,0,0,1-1.38,2,12.34,12.34,0,0,1-2.08,1.8l-.52.38-.76.6c-1.3,1-1.5,1.19-10.12,7.49-1.91,1.41-3.49,2.55-4.79,3.5-5.19,3.76-6.42,4.65-8.18,7.23-3.21,4.72-2,11-1.66,12.24a70.72,70.72,0,0,0,1.49,9.71c.12.6.26,1.2.41,1.8s.29,1.15.45,1.71a70,70,0,0,0,2.83,8.1l.45,1.1c3.82,9.3,10.18,24.88,21.48,24.89,12,0,21.52-14.62,24.51-19.77.23-.39.41-.71.56-1s.24-.44.31-.6.16-.28.22-.42c7.19-13.78,7-23,6.72-25.48-.72-7.48-7.33-15.4-13-18.11-.45-.22-.92-.41-1.35-.59a9.52,9.52,0,0,1-2.07-1.09v-.07A16.91,16.91,0,0,1,141,179.07Zm1.41,8c5.18,2.45,11.17,9.71,11.81,16.36.65,6.8-2.36,16.17-6.19,23.7-.17.34-.33.66-.51,1h0c-.15.3-.33.64-.53,1-3.59,6.34-12.7,19.17-22.9,19.17h0c-10.22,0-16.3-15.92-19.9-24.65a69.14,69.14,0,0,1-3.4-10.53c-.14-.6-.27-1.2-.39-1.79s-.24-1.24-.35-1.84c-.4-2.21-.69-4.45-.87-6.7,0,0-1.68-6.27,1.31-10.66,1.94-2.84,3.13-3.33,12.48-10.18,10-7.37,8.7-6.4,10.93-8.13a19.86,19.86,0,0,0,2.75-2.27,9.8,9.8,0,0,0,1.88-2.75,9.32,9.32,0,0,0,.75-2.58c.12-1.69,3.07-23.87,14.67-29.94a13.21,13.21,0,0,1,6-1.61,9.13,9.13,0,0,1,2.79.43c5.39,1.71,7.23,8,7.53,9a17.14,17.14,0,0,1-1.35,12.12c-1.95,4.19-5,6.71-8.15,9.36-3.69,3.08-6.26,4.6-9.43,8.65a14.94,14.94,0,0,0-2.32,4,2.34,2.34,0,0,0-.09.24,19.34,19.34,0,0,0-1.11,4.62c-.25,2.26,2.14,2.82,4.65,4Z" transform="translate(-10.54 -37.67)"/><path class="cls-8" d="M138.93,178.53a.5.5,0,0,1,.09-.24,14.78,14.78,0,0,1,2.32-4c3.17-4.06,5.74-5.57,9.43-8.66,3.17-2.64,6.2-5.16,8.15-9.36.73-1.6,3-6.45,1.35-12.11-.3-1-2.14-7.28-7.53-9a9.18,9.18,0,0,0-2.79-.43,13.33,13.33,0,0,0-6,1.6c-11.6,6-14.55,28.24-14.67,29.95a9.15,9.15,0,0,1-.75,2.57,9.85,9.85,0,0,1-1.88,2.76,19.86,19.86,0,0,1-2.75,2.27c-2.23,1.73-.9.76-10.93,8.13-9.35,6.87-10.54,7.35-12.48,10.18-3,4.38-1.31,10.66-1.31,10.66.18,2.24.47,4.48.87,6.7.11.6.22,1.2.35,1.83s.25,1.16.39,1.8a70.18,70.18,0,0,0,3.39,10.56c3.59,8.73,9.68,24.63,19.91,24.64h0c10.18,0,19.32-12.84,22.89-19.16.2-.35.39-.69.54-1h0c.17-.33.34-.64.5-1,3.83-7.55,6.85-16.9,6.2-23.7-.64-6.65-6.64-13.92-11.81-16.36-2.51-1.2-4.91-1.74-4.65-4A19.35,19.35,0,0,1,138.93,178.53Zm-5.31,40.72c-1.52,5.93-5.36,12.06-9.13,12.06s-7.9-5.29-9.87-12.87c0,0-1.16-3.27-1.88-15.42a2.06,2.06,0,0,1,.42-1.44,2.91,2.91,0,0,1,2.36-.73l16.59-.24a2.8,2.8,0,0,1,2.11.55,2.4,2.4,0,0,1,.83,2C135.05,212.39,134.33,216.47,133.62,219.25Z" transform="translate(-10.54 -37.67)"/><path class="cls-10" d="M134.22,201.16a2.8,2.8,0,0,0-2.11-.55l-16.59.24a3,3,0,0,0-2.36.74,2.05,2.05,0,0,0-.42,1.43c.72,12.15,1.85,15.4,1.88,15.43,2,7.57,6,12.87,9.87,12.87s7.61-6.13,9.13-12.06c.71-2.78,1.43-6.87,1.43-16.12A2.42,2.42,0,0,0,134.22,201.16Zm-2.71,17.55c-1.52,5.88-5,10.43-7,10.43-2.34,0-5.86-3.94-7.79-11.33,0,0-1.06-3.21-1.76-14.76h.6l16.67-.24h.15a.72.72,0,0,1,.46.06.52.52,0,0,1,.06.3c0,9-.7,12.89-1.37,15.54Z" transform="translate(-10.54 -37.67)"/><path class="cls-6" d="M132.87,203.14c0,9-.69,12.92-1.36,15.57-1.52,5.87-5,10.42-7,10.42-2.34,0-5.86-3.94-7.79-11.33,0,0-1.06-3.2-1.76-14.75h.6l16.67-.24h.15a.66.66,0,0,1,.46.05A.54.54,0,0,1,132.87,203.14Z" transform="translate(-10.54 -37.67)"/></g><path class="cls-11" d="M674.34,258.23a8.12,8.12,0,0,0,.85-5.64,8.85,8.85,0,0,0-3.1-5,6.18,6.18,0,0,0-3-1.57,6.84,6.84,0,0,0-3.48.12,6,6,0,0,0-3,1.58,4.79,4.79,0,0,0-1.43,2.85,7.66,7.66,0,0,0,.43,3.64c.58,1.83,1.27,3.62,1.9,5.45a8.51,8.51,0,0,1,.34,4.79,9.17,9.17,0,0,1-2.34,4.33c-.62.68-1.3,1.33-2,2a26.85,26.85,0,0,0,8.87-4.94,23.24,23.24,0,0,0,6-7.62Z" transform="translate(-10.54 -37.67)"/><path class="cls-12" d="M663.13,237.46a5.38,5.38,0,0,0,.91-2.78,2.36,2.36,0,0,0-.41-1.49,2.17,2.17,0,0,0-1.21-.86,1.93,1.93,0,0,0-1.37.19,2.13,2.13,0,0,0-.91,1.09,6.61,6.61,0,0,0-.49,4.18,6.24,6.24,0,0,0,2.13,3.55A6.2,6.2,0,0,1,663.13,237.46Z" transform="translate(-10.54 -37.67)"/><path class="cls-12" d="M654,247.35a8,8,0,0,1,1.86,5.32,3.14,3.14,0,0,0,.64-1.14,16.08,16.08,0,0,0,.51-7.76,8.71,8.71,0,0,0-2.66-5.33,3.85,3.85,0,0,0-1.73-1.09,4,4,0,0,0-2-.46h0a3.51,3.51,0,0,0-2.42.35,3.69,3.69,0,0,0-1.64,1.33,3.47,3.47,0,0,0-.62,2,3.23,3.23,0,0,0,.46,1.91,3.37,3.37,0,0,0,1.5,1.32c.28.16.54.35.8.53a3.32,3.32,0,0,0,1.3.65,6.42,6.42,0,0,0,1.77.85l2.14,1.53Z" transform="translate(-10.54 -37.67)"/><path class="cls-12" d="M491.89,332.11h14.77l13,40.95L533.71,332h11.83l14.05,41.11,13-40.95H587L565.51,393h-12l-14-39.49L525.3,393.1h-12Z" transform="translate(-10.54 -37.67)"/><path class="cls-12" d="M617.17,332H629.4L655,393.1H641.21l-5.47-13.61H610.42L605,393.1h-13.4Zm13.77,35.73L623.07,348l-7.87,19.68Z" transform="translate(-10.54 -37.67)"/><path class="cls-12" d="M680.07,344.36H661.78V332h49.83v12.41H693.32V393.1H680.07Z" transform="translate(-10.54 -37.67)"/><path class="cls-12" d="M722.93,332h44.9V343.9h-32v12.38H764v12.05H735.88v12.82h32.36v12H722.93Z" transform="translate(-10.54 -37.67)"/><path class="cls-12" d="M779.56,332h28.76c7.95,0,14.07,2,18.32,6.2a18.7,18.7,0,0,1,4.17,6.45,18.33,18.33,0,0,1,1.21,7.54v.18a18.83,18.83,0,0,1-3.73,12.08,21.56,21.56,0,0,1-9.74,6.86l15.37,21.84H817.74l-13.48-19.56H793.39V393.1H779.56Zm27.85,29.73a11.71,11.71,0,0,0,7.86-2.36,8.13,8.13,0,0,0,2.09-2.84A8,8,0,0,0,818,353v-.18a7.65,7.65,0,0,0-.63-3.62,7.8,7.8,0,0,0-2.25-2.94,12.9,12.9,0,0,0-8-2.17H793.39v17.55Z" transform="translate(-10.54 -37.67)"/><path class="cls-12" d="M870.17,332h24.54a28.66,28.66,0,0,1,9.67,1.53,20.48,20.48,0,0,1,7.2,4.33,18.73,18.73,0,0,1,4.55,6.68,22.51,22.51,0,0,1,1.6,8.62v.18a21.5,21.5,0,0,1-2,9.35,18.87,18.87,0,0,1-5.18,6.72,22.34,22.34,0,0,1-7.73,4,32.17,32.17,0,0,1-9.49,1.35h-9.87V393.1H870.24Zm23.73,30.87a10.59,10.59,0,0,0,7.73-2.68,8.87,8.87,0,0,0,2.07-3,9,9,0,0,0,.68-3.59v-.19a8.41,8.41,0,0,0-2.89-6.9,12,12,0,0,0-7.91-2.36h-10.1v18.71Z" transform="translate(-10.54 -37.67)"/><path class="cls-12" d="M950.18,332h12.15L988,393.1H974.16l-5.48-13.61H943.42L938,393.1H924.53ZM964,367.68,956.09,348l-7.88,19.68Z" transform="translate(-10.54 -37.67)"/><path class="cls-12" d="M997,332h28.76c8,0,14.07,2,18.32,6.2a18.87,18.87,0,0,1,4.18,6.45,18.51,18.51,0,0,1,1.22,7.54v.18a18.77,18.77,0,0,1-3.75,12.08,21.63,21.63,0,0,1-9.73,6.86l15.37,21.84h-16.19l-13.48-19.56h-10.87V393.1H997Zm27.82,29.73a11.7,11.7,0,0,0,7.87-2.36,7.86,7.86,0,0,0,2.08-2.84,7.7,7.7,0,0,0,.65-3.44v-.18a7.72,7.72,0,0,0-.61-3.61,8,8,0,0,0-2.24-2.95,13,13,0,0,0-8-2.17h-13.75v17.55Z" transform="translate(-10.54 -37.67)"/><path class="cls-12" d="M1060.44,332h13.71v26.74L1099.52,332h16.4l-25.37,26,26.51,35.19h-16.4l-19.31-26-7.2,7.33V393.1h-13.71Z" transform="translate(-10.54 -37.67)"/><path class="cls-13" d="M1094.19,247.86s33.34,57.62,52.78-6.52c0,0-17.39,13.81-26.86-14.78,0,0,14.77-35.26,41.49,6.79,0,0,4.55,22.26-8.24,40.1s-15.14,21.88-15.14,21.88,29.17,14.52,52.25-26.5-3.72-63.91-3.72-63.91-23.68-28.34,10-42.51,38.86,33.56,35.91,40.65c0,0-10.51,67.51-45.79,92s35.6-16.7,48-15.22c8.29,1,22,17.65-19.33,27.45s-95.28,43.89-145.5-36.58c0,0-1.4-35.25.18-45.69S1094.19,247.86,1094.19,247.86Z" transform="translate(-10.54 -37.67)"/><path class="cls-13" d="M1250.71,252.66s53.56-63.61,87.33-27.31S1285,242,1285,242,1271.51,239.44,1250.71,252.66Z" transform="translate(-10.54 -37.67)"/><path class="cls-13" d="M1292.61,187c16.89,0,30.58-14.2,30.58-31.71s-13.69-31.71-30.58-31.71S1262,137.76,1262,155.27,1275.73,187,1292.61,187Z" transform="translate(-10.54 -37.67)"/><path class="cls-13" d="M1174.83,157.53c5.63,0,10.19-4.05,10.19-9.06s-4.56-9.06-10.19-9.06-10.2,4.06-10.2,9.06S1169.2,157.53,1174.83,157.53Z" transform="translate(-10.54 -37.67)"/><path class="cls-13" d="M1147.64,189.24c9.39,0,17-7.1,17-15.85s-7.6-15.86-17-15.86-17,7.1-17,15.86S1138.26,189.24,1147.64,189.24Z" transform="translate(-10.54 -37.67)"/><path class="cls-14" d="M1273.36,153s10.11-24.3,29.44-12.82C1302.8,140.24,1277,116.42,1273.36,153Z" transform="translate(-10.54 -37.67)"/><path class="cls-14" d="M1205.41,205.1s-25.83-21.34-4.05-38.51C1201.36,166.62,1162,186.05,1205.41,205.1Z" transform="translate(-10.54 -37.67)"/><path class="cls-14" d="M1144.25,187s-11.35-9.51-3-24.92C1141.28,162.06,1125.77,182.15,1144.25,187Z" transform="translate(-10.54 -37.67)"/><path class="cls-15" d="M639.64,86.32s-10-19.82,8-26.9,20.76,12.42,20.76,12.42,3,17.86-13.36,20h-4.7l-8.11-2.51Z" transform="translate(-10.54 -37.67)"/><path class="cls-16" d="M650.45,121.77s-3.25,9.24-2.08,11-18.17,16.31-22.77-4.41c0,0-1.33-8.52,7.82-19.6l1.93-1.09,5.89,6,6,5Z" transform="translate(-10.54 -37.67)"/><path class="cls-17" d="M648.64,96.52a27.53,27.53,0,0,1,3.93,4.29c.41,1,5,9.49,8.93,11.81s14.63,7.55,15.69,9.89,0,5.46-1.21,5.58a116,116,0,0,1-17.59-6.24c-1.23-.9-14.2-3.37-14.2-3.37a49.38,49.38,0,0,1-6.5-6.18c-1-1.62-4.59-5.25-4.87-7.72s-2.29-12,4.45-8.84c0,0,4.47-1.43,5-3.63s-.82-14.55,2.09-16.89c0,0,5.26-10,9.73-8s10.55,3.37,5.56,11.56-3.45,8.68-7.83,10.29S648.64,96.52,648.64,96.52Z" transform="translate(-10.54 -37.67)"/><path class="cls-17" d="M648.3,133.63s7.26-3.5,10.82-4.75,1.51.57,1.51.57-5.32,5.09-6.46,9.62a11.69,11.69,0,0,1-5.44,6.92c-1,.9,2.41,6.55,2.41,6.55a24.66,24.66,0,0,1,0,6.19c-.51,1.63,4.89,3,4.54-8.83s14.67-20,14.67-20,7.83-3.77,3.92-6.41l-3.76,2.37-9.69-4.3L653.57,119l-5.39.78Z" transform="translate(-10.54 -37.67)"/><path class="cls-16" d="M641.39,103.17h7.13s3.08,10,4.1,11-7-.75-9-3a11.57,11.57,0,0,1-2.28-5.45Z" transform="translate(-10.54 -37.67)"/><path class="cls-18" d="M713.87,200.59h54.76A66.49,66.49,0,0,1,791.27,204a38.64,38.64,0,0,1,15,9.42q10.26,10.2,10.23,27.42v.33a37.62,37.62,0,0,1-6.42,22.55,40.72,40.72,0,0,1-17.36,13.62l27.58,41.06H783.24L760,282.67H746v35.68h-32Zm53.18,56.52a19.24,19.24,0,0,0,12.73-3.78,12.49,12.49,0,0,0,3.39-4.57,12.88,12.88,0,0,0,1.06-5.62v-.33a12.51,12.51,0,0,0-1-5.85,12.15,12.15,0,0,0-3.6-4.67,20.93,20.93,0,0,0-12.71-3.44h-21v28.26Z" transform="translate(-10.54 -37.67)"/><path class="cls-18" d="M824.87,200.57h31.71V318.35H824.87Z" transform="translate(-10.54 -37.67)"/><path class="cls-12" d="M618.74,232.28s35.59,50.34,53.79,28.07,5,26.53,5,26.53L644.9,300.23l-22.95-25Z" transform="translate(-10.54 -37.67)"/><path class="cls-18" d="M495.79,106l-72.45,85.51V106H365V316.74h58.3V262.25l21.34-23.79,52.9,78.26h128.1c.66.25,1.29.53,2,.73a81.3,81.3,0,0,0,45,0,42.15,42.15,0,0,0,28.21-26.56,68.44,68.44,0,0,0,3.91-24.4V201.91H671.72v65.57q0,12.33-5.78,18.16a20.82,20.82,0,0,1-15.5,5.84,20.39,20.39,0,0,1-15.52-6.06q-5.76-6-5.78-18.73v-64.8H596.23V269H534.85l-49.58-72.31,75.82-84.76c18.13,2.77,37.9,8.92,52.93,21.9l3.81-5.87c-37.32-32.3-102.77-23.74-103.46-23.66" transform="translate(-10.54 -37.67)"/><path class="cls-19" d="M867.9,209.63s-62.47,36.22-40.85,55.59,45.44,30.13,21.3,37.66-28,6-28,15.48" transform="translate(-10.54 -37.67)"/><path class="cls-18" d="M1134.09,201.22v66q0,12.4-5.76,18.27a20.92,20.92,0,0,1-7.14,4.55,20.58,20.58,0,0,1-8.33,1.31,20.1,20.1,0,0,1-15.45-6.09q-5.76-6.08-5.77-18.83V201.22h-56.25V174.33c34.15-1.26,55.71-6.27,43.29-18.55-26.58-26.26-70.73-51.91-93.4-64.23,2,.57,4-8.38-.62-11.34s-4.38-6.09-3.43-8.12c3-6.46-3.9-13.88-6.68-14.21-3.19-.32-11.79,7.9-9.09,12.4,1.16,2,5.46,6.09-2.16,8.71s-4.77,11.32-4.77,11.32c-93.3,48.71-106.48,74.3-106.48,74.3s16.07,1.71,39.93,3.7v32.91H865.79V318.45h32.14V276.58H952.8V249.44H898V229.7h94v88.75h32.15V229.7h34.63V267a69.63,69.63,0,0,0,3.74,23.87,41.93,41.93,0,0,0,10.61,16.66,41.28,41.28,0,0,0,17,9.86,72.92,72.92,0,0,0,22.38,3.19,73.75,73.75,0,0,0,22.47-3.19,41.89,41.89,0,0,0,17.21-9.91,42.41,42.41,0,0,0,10.79-16.8,68.7,68.7,0,0,0,3.9-24.53V201.24Zm-236.94,0V168.75c12.87,1.06,27.62,2.17,43.07,3.15v29.32Zm50,0h-1.83v-29c12.52.75,25.4,1.4,38,1.85v27.19Zm43.42,0h-2.17v-27c14.84.45,29.21.61,42.07.29v26.72Z" transform="translate(-10.54 -37.67)"/></svg>