<svg width="23" height="28" viewBox="0 0 23 28" fill="none" xmlns="http://www.w3.org/2000/svg">
<g clip-path="url(#clip0_259_25881)">
<path d="M11.5733 3.49826H11.7013C12.8829 3.50351 18.8701 3.55601 20.4844 4.08451C20.9724 4.24581 21.4171 4.5602 21.774 4.99627C22.131 5.43235 22.3877 5.97483 22.5184 6.56951C22.6636 7.23451 22.7657 8.11476 22.8347 9.02301L22.8491 9.20501L22.8807 9.66001L22.8922 9.84201C22.9856 11.4415 22.9971 12.9395 22.9986 13.2668V13.398C22.9971 13.7375 22.9842 15.337 22.8807 17.003L22.8692 17.1868L22.8562 17.3688C22.7844 18.3698 22.678 19.3638 22.5184 20.0953C22.3881 20.6902 22.1315 21.2329 21.7745 21.6691C21.4175 22.1052 20.9726 22.4194 20.4844 22.5803C18.8169 23.1263 12.4789 23.1648 11.6006 23.1665H11.3965C10.9523 23.1665 9.11519 23.156 7.18894 23.0755L6.94456 23.065L6.8195 23.058L6.57369 23.0458L6.32787 23.0335C4.73225 22.9478 3.21281 22.8095 2.51275 22.5785C2.0247 22.4179 1.57991 22.1039 1.22292 21.6681C0.865926 21.2322 0.60928 20.6899 0.478688 20.0953C0.319125 19.3655 0.21275 18.3698 0.140875 17.3688L0.129375 17.185L0.117875 17.003C0.0469309 15.8172 0.00761856 14.6289 0 13.44L0 13.2248C0.002875 12.8485 0.014375 11.5483 0.092 10.1133L0.102063 9.93301L0.106375 9.84201L0.117875 9.66001L0.1495 9.20501L0.163875 9.02301C0.232875 8.11476 0.334937 7.23276 0.480125 6.56951C0.610497 5.97459 0.867046 5.43185 1.22405 4.9957C1.58105 4.55955 2.02597 4.24532 2.51419 4.08451C3.21425 3.85701 4.73369 3.71701 6.32931 3.62951L6.57369 3.61726L6.82094 3.60676L6.94456 3.60151L7.19037 3.58926C8.55845 3.53567 9.9271 3.50591 11.2959 3.50001H11.5733V3.49826ZM9.2 9.11576V17.5473L15.1757 13.3333L9.2 9.11576Z" fill="#191E19"/>
</g>
<defs>
<clipPath id="clip0_259_25881">
<rect width="23" height="28" fill="white"/>
</clipPath>
</defs>
</svg>
